<mxfile host="Electron" modified="2023-05-30T19:53:59.868Z" agent="Mozilla/5.0 (Windows NT 10.0; Win64; x64) AppleWebKit/537.36 (KHTML, like Gecko) draw.io/21.2.8 Chrome/112.0.5615.165 Electron/24.2.0 Safari/537.36" etag="2yI4ePhO-rDQ6wldfMg9" version="21.2.8" type="device">
  <diagram name="Pagina-1" id="Qnb35X_hfFmvDTuYBCRj">
    <mxGraphModel dx="6099" dy="4128" grid="1" gridSize="10" guides="1" tooltips="1" connect="1" arrows="1" fold="1" page="1" pageScale="1" pageWidth="4681" pageHeight="3300" math="0" shadow="0">
      <root>
        <mxCell id="0" />
        <mxCell id="1" parent="0" />
        <mxCell id="CE5s2COzBPPs-qAKDbu1-266" value="" style="rounded=0;whiteSpace=wrap;html=1;" parent="1" vertex="1">
          <mxGeometry x="1020" y="1041" width="550" height="299" as="geometry" />
        </mxCell>
        <mxCell id="CE5s2COzBPPs-qAKDbu1-224" value="" style="rounded=0;whiteSpace=wrap;html=1;" parent="1" vertex="1">
          <mxGeometry x="330" y="-220" width="520" height="280" as="geometry" />
        </mxCell>
        <mxCell id="CE5s2COzBPPs-qAKDbu1-216" value="" style="rounded=0;whiteSpace=wrap;html=1;" parent="1" vertex="1">
          <mxGeometry x="-160" y="-220" width="480" height="280" as="geometry" />
        </mxCell>
        <mxCell id="CE5s2COzBPPs-qAKDbu1-198" value="" style="rounded=0;whiteSpace=wrap;html=1;dashed=1;" parent="1" vertex="1">
          <mxGeometry x="270" y="390" width="400" height="280" as="geometry" />
        </mxCell>
        <mxCell id="CE5s2COzBPPs-qAKDbu1-137" value="" style="rounded=0;whiteSpace=wrap;html=1;" parent="1" vertex="1">
          <mxGeometry x="-380" y="80" width="600" height="410" as="geometry" />
        </mxCell>
        <mxCell id="CE5s2COzBPPs-qAKDbu1-125" value="" style="rounded=0;whiteSpace=wrap;html=1;" parent="1" vertex="1">
          <mxGeometry x="-350" y="515" width="580" height="310" as="geometry" />
        </mxCell>
        <mxCell id="CE5s2COzBPPs-qAKDbu1-73" value="" style="rounded=0;whiteSpace=wrap;html=1;" parent="1" vertex="1">
          <mxGeometry x="1590" y="750" width="580" height="590" as="geometry" />
        </mxCell>
        <mxCell id="CE5s2COzBPPs-qAKDbu1-63" value="" style="rounded=0;whiteSpace=wrap;html=1;" parent="1" vertex="1">
          <mxGeometry x="1590" y="70" width="580" height="330" as="geometry" />
        </mxCell>
        <mxCell id="CE5s2COzBPPs-qAKDbu1-61" value="" style="rounded=0;whiteSpace=wrap;html=1;" parent="1" vertex="1">
          <mxGeometry x="1590" y="420.5" width="580" height="299.5" as="geometry" />
        </mxCell>
        <mxCell id="5XHuWZA4LQ0ceYuqT-mD-1" value="External exposure" style="rounded=0;whiteSpace=wrap;html=1;fillColor=#d5e8d4;strokeColor=#82b366;" parent="1" vertex="1">
          <mxGeometry x="840" y="620" width="110" height="50" as="geometry" />
        </mxCell>
        <mxCell id="5XHuWZA4LQ0ceYuqT-mD-2" value="Aggregate exposure model" style="rounded=0;whiteSpace=wrap;html=1;fillColor=#f8cecc;strokeColor=#b85450;" parent="1" vertex="1">
          <mxGeometry x="1050" y="620" width="110" height="50" as="geometry" />
        </mxCell>
        <mxCell id="5XHuWZA4LQ0ceYuqT-mD-4" value="Internal exposure" style="rounded=0;whiteSpace=wrap;html=1;fillColor=#d5e8d4;strokeColor=#82b366;" parent="1" vertex="1">
          <mxGeometry x="1260" y="620" width="110" height="50" as="geometry" />
        </mxCell>
        <mxCell id="5XHuWZA4LQ0ceYuqT-mD-6" value="Exposure route" style="ellipse;whiteSpace=wrap;html=1;fillColor=#d5e8d4;strokeColor=#82b366;fontStyle=4" parent="1" vertex="1">
          <mxGeometry x="760" y="440" width="120" height="50" as="geometry" />
        </mxCell>
        <mxCell id="5XHuWZA4LQ0ceYuqT-mD-8" value="Outer exposure surface" style="ellipse;whiteSpace=wrap;html=1;fillColor=#d5e8d4;strokeColor=#82b366;fontStyle=4" parent="1" vertex="1">
          <mxGeometry x="870" y="510" width="120" height="40" as="geometry" />
        </mxCell>
        <mxCell id="5XHuWZA4LQ0ceYuqT-mD-13" value="Exposure level" style="rounded=0;whiteSpace=wrap;html=1;fillColor=#d5e8d4;strokeColor=#82b366;" parent="1" vertex="1">
          <mxGeometry x="990" y="465" width="110" height="50" as="geometry" />
        </mxCell>
        <mxCell id="5XHuWZA4LQ0ceYuqT-mD-14" value="Bias" style="ellipse;whiteSpace=wrap;html=1;fillColor=#d5e8d4;strokeColor=#82b366;fontStyle=0" parent="1" vertex="1">
          <mxGeometry x="1150" y="380" width="120" height="40" as="geometry" />
        </mxCell>
        <mxCell id="5XHuWZA4LQ0ceYuqT-mD-15" value="Variability" style="ellipse;whiteSpace=wrap;html=1;fillColor=#d5e8d4;strokeColor=#82b366;fontStyle=0" parent="1" vertex="1">
          <mxGeometry x="990" y="300" width="120" height="40" as="geometry" />
        </mxCell>
        <mxCell id="5XHuWZA4LQ0ceYuqT-mD-16" value="Exposure unit" style="ellipse;whiteSpace=wrap;html=1;fillColor=#d5e8d4;strokeColor=#82b366;fontStyle=0" parent="1" vertex="1">
          <mxGeometry x="900" y="340" width="120" height="40" as="geometry" />
        </mxCell>
        <mxCell id="5XHuWZA4LQ0ceYuqT-mD-17" value="Uncertainty" style="ellipse;whiteSpace=wrap;html=1;fillColor=#d5e8d4;strokeColor=#82b366;fontStyle=0" parent="1" vertex="1">
          <mxGeometry x="1110" y="320" width="120" height="40" as="geometry" />
        </mxCell>
        <mxCell id="5XHuWZA4LQ0ceYuqT-mD-24" value="Inner exposure surface" style="ellipse;whiteSpace=wrap;html=1;fillColor=#d5e8d4;strokeColor=#82b366;fontStyle=4" parent="1" vertex="1">
          <mxGeometry x="1160" y="510" width="120" height="40" as="geometry" />
        </mxCell>
        <mxCell id="5XHuWZA4LQ0ceYuqT-mD-26" value="Substance" style="ellipse;whiteSpace=wrap;html=1;fillColor=#d5e8d4;strokeColor=#82b366;fontStyle=4" parent="1" vertex="1">
          <mxGeometry x="1255" y="470" width="120" height="40" as="geometry" />
        </mxCell>
        <mxCell id="5XHuWZA4LQ0ceYuqT-mD-28" value="Exposure level" style="rounded=0;whiteSpace=wrap;html=1;fillColor=#fff2cc;strokeColor=#d6b656;" parent="1" vertex="1">
          <mxGeometry x="1370" y="530" width="110" height="50" as="geometry" />
        </mxCell>
        <mxCell id="5XHuWZA4LQ0ceYuqT-mD-40" value="Kinetic conversion model" style="rounded=0;whiteSpace=wrap;html=1;fillColor=#d5e8d4;strokeColor=#82b366;" parent="1" vertex="1">
          <mxGeometry x="1050" y="720" width="110" height="50" as="geometry" />
        </mxCell>
        <mxCell id="5XHuWZA4LQ0ceYuqT-mD-42" value="PBK model" style="rounded=0;whiteSpace=wrap;html=1;fillColor=#d5e8d4;strokeColor=#82b366;" parent="1" vertex="1">
          <mxGeometry x="1110" y="821" width="110" height="50" as="geometry" />
        </mxCell>
        <mxCell id="5XHuWZA4LQ0ceYuqT-mD-43" value="Absorption/kinetic conversion factor model" style="rounded=0;whiteSpace=wrap;html=1;fillColor=#d5e8d4;strokeColor=#82b366;" parent="1" vertex="1">
          <mxGeometry x="960" y="821" width="110" height="50" as="geometry" />
        </mxCell>
        <mxCell id="5XHuWZA4LQ0ceYuqT-mD-44" value="PBK model definition" style="rounded=0;whiteSpace=wrap;html=1;fillColor=#d5e8d4;strokeColor=#82b366;" parent="1" vertex="1">
          <mxGeometry x="1060" y="911" width="110" height="50" as="geometry" />
        </mxCell>
        <mxCell id="5XHuWZA4LQ0ceYuqT-mD-45" value="PBK model parametrisation" style="rounded=0;whiteSpace=wrap;html=1;fillColor=#d5e8d4;strokeColor=#82b366;" parent="1" vertex="1">
          <mxGeometry x="1200" y="911" width="110" height="50" as="geometry" />
        </mxCell>
        <mxCell id="CE5s2COzBPPs-qAKDbu1-4" value="" style="endArrow=classic;html=1;rounded=0;exitX=0.561;exitY=-0.011;exitDx=0;exitDy=0;entryX=0.5;entryY=1;entryDx=0;entryDy=0;exitPerimeter=0;" parent="1" source="5XHuWZA4LQ0ceYuqT-mD-1" target="5XHuWZA4LQ0ceYuqT-mD-13" edge="1">
          <mxGeometry relative="1" as="geometry">
            <mxPoint x="896" y="620" as="sourcePoint" />
            <mxPoint x="1076" y="520" as="targetPoint" />
          </mxGeometry>
        </mxCell>
        <mxCell id="CE5s2COzBPPs-qAKDbu1-5" value="h/q" style="edgeLabel;resizable=0;html=1;align=center;verticalAlign=middle;" parent="CE5s2COzBPPs-qAKDbu1-4" connectable="0" vertex="1">
          <mxGeometry relative="1" as="geometry">
            <mxPoint x="-2" as="offset" />
          </mxGeometry>
        </mxCell>
        <mxCell id="CE5s2COzBPPs-qAKDbu1-10" value="" style="endArrow=classic;html=1;rounded=0;entryX=0.5;entryY=1;entryDx=0;entryDy=0;exitX=0.556;exitY=0.015;exitDx=0;exitDy=0;exitPerimeter=0;" parent="1" source="5XHuWZA4LQ0ceYuqT-mD-1" target="5XHuWZA4LQ0ceYuqT-mD-6" edge="1">
          <mxGeometry relative="1" as="geometry">
            <mxPoint x="906" y="630" as="sourcePoint" />
            <mxPoint x="1086" y="530" as="targetPoint" />
          </mxGeometry>
        </mxCell>
        <mxCell id="CE5s2COzBPPs-qAKDbu1-11" value="h/a" style="edgeLabel;resizable=0;html=1;align=center;verticalAlign=middle;" parent="CE5s2COzBPPs-qAKDbu1-10" connectable="0" vertex="1">
          <mxGeometry relative="1" as="geometry">
            <mxPoint x="-2" as="offset" />
          </mxGeometry>
        </mxCell>
        <mxCell id="CE5s2COzBPPs-qAKDbu1-12" value="" style="endArrow=classic;html=1;rounded=0;entryX=0.556;entryY=0.977;entryDx=0;entryDy=0;entryPerimeter=0;exitX=0.553;exitY=0.008;exitDx=0;exitDy=0;exitPerimeter=0;" parent="1" source="5XHuWZA4LQ0ceYuqT-mD-1" target="CE5s2COzBPPs-qAKDbu1-176" edge="1">
          <mxGeometry relative="1" as="geometry">
            <mxPoint x="909" y="630" as="sourcePoint" />
            <mxPoint x="764.1099999999997" y="500.8499999999999" as="targetPoint" />
          </mxGeometry>
        </mxCell>
        <mxCell id="CE5s2COzBPPs-qAKDbu1-13" value="h/a" style="edgeLabel;resizable=0;html=1;align=center;verticalAlign=middle;" parent="CE5s2COzBPPs-qAKDbu1-12" connectable="0" vertex="1">
          <mxGeometry relative="1" as="geometry">
            <mxPoint x="-2" as="offset" />
          </mxGeometry>
        </mxCell>
        <mxCell id="CE5s2COzBPPs-qAKDbu1-15" value="" style="endArrow=classic;html=1;rounded=0;exitX=0.5;exitY=0;exitDx=0;exitDy=0;entryX=0;entryY=1;entryDx=0;entryDy=0;" parent="1" source="5XHuWZA4LQ0ceYuqT-mD-13" target="5XHuWZA4LQ0ceYuqT-mD-14" edge="1">
          <mxGeometry relative="1" as="geometry">
            <mxPoint x="912" y="629" as="sourcePoint" />
            <mxPoint x="1086" y="530" as="targetPoint" />
          </mxGeometry>
        </mxCell>
        <mxCell id="CE5s2COzBPPs-qAKDbu1-16" value="h/q" style="edgeLabel;resizable=0;html=1;align=center;verticalAlign=middle;" parent="CE5s2COzBPPs-qAKDbu1-15" connectable="0" vertex="1">
          <mxGeometry relative="1" as="geometry">
            <mxPoint x="-2" as="offset" />
          </mxGeometry>
        </mxCell>
        <mxCell id="CE5s2COzBPPs-qAKDbu1-17" value="" style="endArrow=classic;html=1;rounded=0;exitX=0.5;exitY=0;exitDx=0;exitDy=0;entryX=0.434;entryY=0.95;entryDx=0;entryDy=0;entryPerimeter=0;" parent="1" source="5XHuWZA4LQ0ceYuqT-mD-13" target="5XHuWZA4LQ0ceYuqT-mD-17" edge="1">
          <mxGeometry relative="1" as="geometry">
            <mxPoint x="1085" y="480" as="sourcePoint" />
            <mxPoint x="1216" y="423" as="targetPoint" />
          </mxGeometry>
        </mxCell>
        <mxCell id="CE5s2COzBPPs-qAKDbu1-18" value="h/q" style="edgeLabel;resizable=0;html=1;align=center;verticalAlign=middle;" parent="CE5s2COzBPPs-qAKDbu1-17" connectable="0" vertex="1">
          <mxGeometry relative="1" as="geometry">
            <mxPoint x="-2" as="offset" />
          </mxGeometry>
        </mxCell>
        <mxCell id="CE5s2COzBPPs-qAKDbu1-19" value="" style="endArrow=classic;html=1;rounded=0;entryX=0.5;entryY=1;entryDx=0;entryDy=0;exitX=0.5;exitY=0;exitDx=0;exitDy=0;" parent="1" source="5XHuWZA4LQ0ceYuqT-mD-13" target="5XHuWZA4LQ0ceYuqT-mD-15" edge="1">
          <mxGeometry relative="1" as="geometry">
            <mxPoint x="1080" y="470" as="sourcePoint" />
            <mxPoint x="1172" y="368" as="targetPoint" />
          </mxGeometry>
        </mxCell>
        <mxCell id="CE5s2COzBPPs-qAKDbu1-20" value="h/q" style="edgeLabel;resizable=0;html=1;align=center;verticalAlign=middle;" parent="CE5s2COzBPPs-qAKDbu1-19" connectable="0" vertex="1">
          <mxGeometry relative="1" as="geometry">
            <mxPoint x="-2" as="offset" />
          </mxGeometry>
        </mxCell>
        <mxCell id="CE5s2COzBPPs-qAKDbu1-21" value="" style="endArrow=classic;html=1;rounded=0;entryX=0.5;entryY=1;entryDx=0;entryDy=0;exitX=0.5;exitY=0;exitDx=0;exitDy=0;" parent="1" source="5XHuWZA4LQ0ceYuqT-mD-13" target="5XHuWZA4LQ0ceYuqT-mD-16" edge="1">
          <mxGeometry relative="1" as="geometry">
            <mxPoint x="1085" y="480" as="sourcePoint" />
            <mxPoint x="1060" y="350" as="targetPoint" />
          </mxGeometry>
        </mxCell>
        <mxCell id="CE5s2COzBPPs-qAKDbu1-22" value="h/q" style="edgeLabel;resizable=0;html=1;align=center;verticalAlign=middle;" parent="CE5s2COzBPPs-qAKDbu1-21" connectable="0" vertex="1">
          <mxGeometry relative="1" as="geometry">
            <mxPoint x="-2" as="offset" />
          </mxGeometry>
        </mxCell>
        <mxCell id="CE5s2COzBPPs-qAKDbu1-31" value="" style="endArrow=classic;html=1;rounded=0;exitX=0.451;exitY=-0.026;exitDx=0;exitDy=0;entryX=0.5;entryY=1;entryDx=0;entryDy=0;exitPerimeter=0;" parent="1" source="5XHuWZA4LQ0ceYuqT-mD-4" target="5XHuWZA4LQ0ceYuqT-mD-24" edge="1">
          <mxGeometry relative="1" as="geometry">
            <mxPoint x="912" y="629" as="sourcePoint" />
            <mxPoint x="1055" y="525" as="targetPoint" />
          </mxGeometry>
        </mxCell>
        <mxCell id="CE5s2COzBPPs-qAKDbu1-32" value="h/a" style="edgeLabel;resizable=0;html=1;align=center;verticalAlign=middle;" parent="CE5s2COzBPPs-qAKDbu1-31" connectable="0" vertex="1">
          <mxGeometry relative="1" as="geometry">
            <mxPoint x="-2" as="offset" />
          </mxGeometry>
        </mxCell>
        <mxCell id="CE5s2COzBPPs-qAKDbu1-33" value="" style="endArrow=classic;html=1;rounded=0;exitX=0.469;exitY=0.048;exitDx=0;exitDy=0;entryX=0.532;entryY=1.02;entryDx=0;entryDy=0;exitPerimeter=0;entryPerimeter=0;" parent="1" source="5XHuWZA4LQ0ceYuqT-mD-4" target="5XHuWZA4LQ0ceYuqT-mD-26" edge="1">
          <mxGeometry relative="1" as="geometry">
            <mxPoint x="1320" y="629" as="sourcePoint" />
            <mxPoint x="1230" y="560" as="targetPoint" />
          </mxGeometry>
        </mxCell>
        <mxCell id="CE5s2COzBPPs-qAKDbu1-34" value="h/a" style="edgeLabel;resizable=0;html=1;align=center;verticalAlign=middle;" parent="CE5s2COzBPPs-qAKDbu1-33" connectable="0" vertex="1">
          <mxGeometry relative="1" as="geometry">
            <mxPoint x="-2" as="offset" />
          </mxGeometry>
        </mxCell>
        <mxCell id="CE5s2COzBPPs-qAKDbu1-35" value="Emission source" style="rounded=0;whiteSpace=wrap;html=1;fillColor=#d5e8d4;strokeColor=#82b366;fontStyle=4" parent="1" vertex="1">
          <mxGeometry x="310" y="505" width="110" height="50" as="geometry" />
        </mxCell>
        <mxCell id="CE5s2COzBPPs-qAKDbu1-36" value="Exposure pathway" style="rounded=0;whiteSpace=wrap;html=1;fillColor=#d5e8d4;strokeColor=#82b366;fontStyle=4" parent="1" vertex="1">
          <mxGeometry x="490" y="505" width="110" height="50" as="geometry" />
        </mxCell>
        <mxCell id="CE5s2COzBPPs-qAKDbu1-37" value="" style="endArrow=classic;html=1;rounded=0;exitX=1;exitY=0.5;exitDx=0;exitDy=0;" parent="1" source="CE5s2COzBPPs-qAKDbu1-36" target="CE5s2COzBPPs-qAKDbu1-176" edge="1">
          <mxGeometry relative="1" as="geometry">
            <mxPoint x="911" y="630" as="sourcePoint" />
            <mxPoint x="720" y="475.0000000000001" as="targetPoint" />
          </mxGeometry>
        </mxCell>
        <mxCell id="CE5s2COzBPPs-qAKDbu1-38" value="h/a" style="edgeLabel;resizable=0;html=1;align=center;verticalAlign=middle;" parent="CE5s2COzBPPs-qAKDbu1-37" connectable="0" vertex="1">
          <mxGeometry relative="1" as="geometry">
            <mxPoint x="-2" as="offset" />
          </mxGeometry>
        </mxCell>
        <mxCell id="CE5s2COzBPPs-qAKDbu1-39" value="" style="endArrow=classic;html=1;rounded=0;entryX=1;entryY=0.5;entryDx=0;entryDy=0;exitX=0;exitY=0.5;exitDx=0;exitDy=0;" parent="1" source="CE5s2COzBPPs-qAKDbu1-36" target="CE5s2COzBPPs-qAKDbu1-35" edge="1">
          <mxGeometry relative="1" as="geometry">
            <mxPoint x="570" y="590" as="sourcePoint" />
            <mxPoint x="640" y="550" as="targetPoint" />
          </mxGeometry>
        </mxCell>
        <mxCell id="CE5s2COzBPPs-qAKDbu1-40" value="h/a" style="edgeLabel;resizable=0;html=1;align=center;verticalAlign=middle;" parent="CE5s2COzBPPs-qAKDbu1-39" connectable="0" vertex="1">
          <mxGeometry relative="1" as="geometry">
            <mxPoint x="-2" as="offset" />
          </mxGeometry>
        </mxCell>
        <mxCell id="CE5s2COzBPPs-qAKDbu1-41" value="" style="endArrow=classic;html=1;rounded=0;entryX=0.299;entryY=0.937;entryDx=0;entryDy=0;exitX=1;exitY=0.5;exitDx=0;exitDy=0;entryPerimeter=0;" parent="1" source="CE5s2COzBPPs-qAKDbu1-36" target="5XHuWZA4LQ0ceYuqT-mD-6" edge="1">
          <mxGeometry relative="1" as="geometry">
            <mxPoint x="630" y="550" as="sourcePoint" />
            <mxPoint x="730" y="485" as="targetPoint" />
          </mxGeometry>
        </mxCell>
        <mxCell id="CE5s2COzBPPs-qAKDbu1-42" value="h/a" style="edgeLabel;resizable=0;html=1;align=center;verticalAlign=middle;" parent="CE5s2COzBPPs-qAKDbu1-41" connectable="0" vertex="1">
          <mxGeometry relative="1" as="geometry">
            <mxPoint x="-2" as="offset" />
          </mxGeometry>
        </mxCell>
        <mxCell id="CE5s2COzBPPs-qAKDbu1-44" value="" style="endArrow=classic;html=1;rounded=0;exitX=0.5;exitY=0;exitDx=0;exitDy=0;entryX=0.5;entryY=1;entryDx=0;entryDy=0;" parent="1" source="5XHuWZA4LQ0ceYuqT-mD-4" target="5XHuWZA4LQ0ceYuqT-mD-28" edge="1">
          <mxGeometry relative="1" as="geometry">
            <mxPoint x="1322" y="632" as="sourcePoint" />
            <mxPoint x="1329" y="521" as="targetPoint" />
          </mxGeometry>
        </mxCell>
        <mxCell id="CE5s2COzBPPs-qAKDbu1-45" value="h/a" style="edgeLabel;resizable=0;html=1;align=center;verticalAlign=middle;" parent="CE5s2COzBPPs-qAKDbu1-44" connectable="0" vertex="1">
          <mxGeometry relative="1" as="geometry">
            <mxPoint x="-2" as="offset" />
          </mxGeometry>
        </mxCell>
        <mxCell id="CE5s2COzBPPs-qAKDbu1-46" value="Exposure source. [adapted from (IPCS and IOMC 2004); (van Tongeren et al. 2011); and project meetings]. &#xa;The origin of substance or a mixture for the purposes of an exposure assessment, in immediate contact with outer surfaces of exposure, to which individuals in the target population may be exposed. Examples are food, drinking water, consumer products, indoor air, outdoor air, dust and soil." style="text;whiteSpace=wrap;html=1;" parent="1" vertex="1">
          <mxGeometry x="-360" y="416" width="580" height="70" as="geometry" />
        </mxCell>
        <mxCell id="CE5s2COzBPPs-qAKDbu1-49" value="Exposure surface. [adapted from (IPCS and IOMC 2004)]. &lt;br/&gt;&lt;br&gt;A surface on a target where a substance is present. A distinction could be made between the surfaces inside the body, i.e. inner exposure surfaces, and those outside the body, i.e. outer exposure surfaces, that have in common to be located before an absorption barrier. Examples of outer exposure surfaces include the exterior of an eyeball, the skin surface, and a conceptual surface over the nose and open mouth. Examples of inner exposure surfaces include the gastrointestinal tract, the respiratory tract, and the urinary tract lining. Both outer and inner exposure surfaces can be called: external exposure surfaces.&lt;br/&gt;&lt;br&gt;There are also exposure surfaces behind an absorption barrier the epithelia. These include, for example, urine, blood, or even specific organs. These surfaces can be called: internal exposure surfaces." style="text;whiteSpace=wrap;html=1;" parent="1" vertex="1">
          <mxGeometry x="1600" y="1140" width="560" height="180" as="geometry" />
        </mxCell>
        <mxCell id="CE5s2COzBPPs-qAKDbu1-50" value="Exposure route" style="ellipse;whiteSpace=wrap;html=1;fillColor=#d5e8d4;strokeColor=#82b366;fontStyle=4" parent="1" vertex="1">
          <mxGeometry x="1810" y="570" width="120" height="50" as="geometry" />
        </mxCell>
        <mxCell id="CE5s2COzBPPs-qAKDbu1-51" value="Oral (exposure route)" style="ellipse;whiteSpace=wrap;html=1;fillColor=#d5e8d4;strokeColor=#82b366;fontStyle=4" parent="1" vertex="1">
          <mxGeometry x="1660" y="450" width="120" height="50" as="geometry" />
        </mxCell>
        <mxCell id="CE5s2COzBPPs-qAKDbu1-52" value="" style="endArrow=classic;html=1;rounded=0;exitX=0.5;exitY=1;exitDx=0;exitDy=0;entryX=0.5;entryY=0;entryDx=0;entryDy=0;" parent="1" source="CE5s2COzBPPs-qAKDbu1-51" target="CE5s2COzBPPs-qAKDbu1-50" edge="1">
          <mxGeometry relative="1" as="geometry">
            <mxPoint x="1670" y="621" as="sourcePoint" />
            <mxPoint x="1793" y="570" as="targetPoint" />
          </mxGeometry>
        </mxCell>
        <mxCell id="CE5s2COzBPPs-qAKDbu1-53" value="i/o" style="edgeLabel;resizable=0;html=1;align=center;verticalAlign=middle;" parent="CE5s2COzBPPs-qAKDbu1-52" connectable="0" vertex="1">
          <mxGeometry relative="1" as="geometry">
            <mxPoint x="-2" as="offset" />
          </mxGeometry>
        </mxCell>
        <mxCell id="CE5s2COzBPPs-qAKDbu1-54" value="Dermal (exposure route)" style="ellipse;whiteSpace=wrap;html=1;fillColor=#d5e8d4;strokeColor=#82b366;fontStyle=4" parent="1" vertex="1">
          <mxGeometry x="1800" y="450" width="120" height="50" as="geometry" />
        </mxCell>
        <mxCell id="CE5s2COzBPPs-qAKDbu1-55" value="" style="endArrow=classic;html=1;rounded=0;exitX=0.5;exitY=1;exitDx=0;exitDy=0;entryX=0.465;entryY=0.006;entryDx=0;entryDy=0;entryPerimeter=0;" parent="1" source="CE5s2COzBPPs-qAKDbu1-54" target="CE5s2COzBPPs-qAKDbu1-50" edge="1">
          <mxGeometry relative="1" as="geometry">
            <mxPoint x="1700" y="510" as="sourcePoint" />
            <mxPoint x="1880" y="580" as="targetPoint" />
          </mxGeometry>
        </mxCell>
        <mxCell id="CE5s2COzBPPs-qAKDbu1-56" value="i/o" style="edgeLabel;resizable=0;html=1;align=center;verticalAlign=middle;" parent="CE5s2COzBPPs-qAKDbu1-55" connectable="0" vertex="1">
          <mxGeometry relative="1" as="geometry">
            <mxPoint x="-2" as="offset" />
          </mxGeometry>
        </mxCell>
        <mxCell id="CE5s2COzBPPs-qAKDbu1-57" value="Inhalation (exposure route)" style="ellipse;whiteSpace=wrap;html=1;fillColor=#d5e8d4;strokeColor=#82b366;fontStyle=4" parent="1" vertex="1">
          <mxGeometry x="1940" y="450" width="120" height="50" as="geometry" />
        </mxCell>
        <mxCell id="CE5s2COzBPPs-qAKDbu1-58" value="" style="endArrow=classic;html=1;rounded=0;exitX=0.5;exitY=1;exitDx=0;exitDy=0;entryX=0.451;entryY=0.006;entryDx=0;entryDy=0;entryPerimeter=0;" parent="1" source="CE5s2COzBPPs-qAKDbu1-57" target="CE5s2COzBPPs-qAKDbu1-50" edge="1">
          <mxGeometry relative="1" as="geometry">
            <mxPoint x="1870" y="510" as="sourcePoint" />
            <mxPoint x="1876" y="580" as="targetPoint" />
          </mxGeometry>
        </mxCell>
        <mxCell id="CE5s2COzBPPs-qAKDbu1-59" value="i/o" style="edgeLabel;resizable=0;html=1;align=center;verticalAlign=middle;" parent="CE5s2COzBPPs-qAKDbu1-58" connectable="0" vertex="1">
          <mxGeometry relative="1" as="geometry">
            <mxPoint x="-2" as="offset" />
          </mxGeometry>
        </mxCell>
        <mxCell id="CE5s2COzBPPs-qAKDbu1-60" value="Exposure route. [adapted from (IPCS and IOMC 2004); and project meetings] &#xa;The way in which a substance reaches an external exposure surface, starting from the exposure source. These are oral ingestion, inhalation and dermal contact. Each exposure route is generally associated with a particular absorption behaviour through the absorption barriers surface that directly or indirectly separates the external exposure surfaces (outer or inner surfaces) from the internal exposure surfaces." style="text;whiteSpace=wrap;html=1;" parent="1" vertex="1">
          <mxGeometry x="1600" y="629.5" width="560" height="90.5" as="geometry" />
        </mxCell>
        <mxCell id="CE5s2COzBPPs-qAKDbu1-62" value="XXX" style="rounded=0;whiteSpace=wrap;html=1;fillColor=#fff2cc;strokeColor=#d6b656;" parent="1" vertex="1">
          <mxGeometry x="1600" y="83" width="110" height="47" as="geometry" />
        </mxCell>
        <mxCell id="CE5s2COzBPPs-qAKDbu1-64" value="Complex/composite entity already defined elsewhere (diplicate)." style="text;whiteSpace=wrap;html=1;" parent="1" vertex="1">
          <mxGeometry x="1715" y="93" width="415" height="30" as="geometry" />
        </mxCell>
        <mxCell id="CE5s2COzBPPs-qAKDbu1-65" value="Internal exposure" style="rounded=0;whiteSpace=wrap;html=1;fillColor=#d5e8d4;strokeColor=#82b366;" parent="1" vertex="1">
          <mxGeometry x="1600" y="143" width="110" height="47" as="geometry" />
        </mxCell>
        <mxCell id="CE5s2COzBPPs-qAKDbu1-66" value="Complex/composite entity." style="text;whiteSpace=wrap;html=1;" parent="1" vertex="1">
          <mxGeometry x="1715" y="153" width="415" height="30" as="geometry" />
        </mxCell>
        <mxCell id="CE5s2COzBPPs-qAKDbu1-67" value="" style="endArrow=classic;html=1;rounded=0;exitX=0;exitY=0.5;exitDx=0;exitDy=0;entryX=1;entryY=0.5;entryDx=0;entryDy=0;" parent="1" source="5XHuWZA4LQ0ceYuqT-mD-2" target="5XHuWZA4LQ0ceYuqT-mD-1" edge="1">
          <mxGeometry relative="1" as="geometry">
            <mxPoint x="912" y="629" as="sourcePoint" />
            <mxPoint x="1055" y="525" as="targetPoint" />
          </mxGeometry>
        </mxCell>
        <mxCell id="CE5s2COzBPPs-qAKDbu1-68" value="has-input" style="edgeLabel;resizable=0;html=1;align=center;verticalAlign=middle;" parent="CE5s2COzBPPs-qAKDbu1-67" connectable="0" vertex="1">
          <mxGeometry relative="1" as="geometry">
            <mxPoint x="-2" as="offset" />
          </mxGeometry>
        </mxCell>
        <mxCell id="CE5s2COzBPPs-qAKDbu1-69" value="" style="endArrow=classic;html=1;rounded=0;exitX=1.029;exitY=0.455;exitDx=0;exitDy=0;entryX=0;entryY=0.5;entryDx=0;entryDy=0;exitPerimeter=0;" parent="1" source="5XHuWZA4LQ0ceYuqT-mD-2" target="5XHuWZA4LQ0ceYuqT-mD-4" edge="1">
          <mxGeometry relative="1" as="geometry">
            <mxPoint x="1060" y="655" as="sourcePoint" />
            <mxPoint x="960" y="655" as="targetPoint" />
          </mxGeometry>
        </mxCell>
        <mxCell id="CE5s2COzBPPs-qAKDbu1-70" value="has-output" style="edgeLabel;resizable=0;html=1;align=center;verticalAlign=middle;" parent="CE5s2COzBPPs-qAKDbu1-69" connectable="0" vertex="1">
          <mxGeometry relative="1" as="geometry">
            <mxPoint x="-2" as="offset" />
          </mxGeometry>
        </mxCell>
        <mxCell id="CE5s2COzBPPs-qAKDbu1-71" value="" style="endArrow=classic;html=1;rounded=0;exitX=0.5;exitY=1;exitDx=0;exitDy=0;" parent="1" source="5XHuWZA4LQ0ceYuqT-mD-2" target="5XHuWZA4LQ0ceYuqT-mD-40" edge="1">
          <mxGeometry relative="1" as="geometry">
            <mxPoint x="1060" y="655" as="sourcePoint" />
            <mxPoint x="1240" y="730" as="targetPoint" />
          </mxGeometry>
        </mxCell>
        <mxCell id="CE5s2COzBPPs-qAKDbu1-72" value="has-sub-model" style="edgeLabel;resizable=0;html=1;align=center;verticalAlign=middle;" parent="CE5s2COzBPPs-qAKDbu1-71" connectable="0" vertex="1">
          <mxGeometry relative="1" as="geometry">
            <mxPoint x="-2" as="offset" />
          </mxGeometry>
        </mxCell>
        <mxCell id="CE5s2COzBPPs-qAKDbu1-85" value="Inner exposure surface" style="ellipse;whiteSpace=wrap;html=1;fillColor=#d5e8d4;strokeColor=#82b366;fontStyle=4" parent="1" vertex="1">
          <mxGeometry x="1871.5" y="856" width="120" height="40" as="geometry" />
        </mxCell>
        <mxCell id="CE5s2COzBPPs-qAKDbu1-86" value="Outer exposure surface" style="ellipse;whiteSpace=wrap;html=1;fillColor=#d5e8d4;strokeColor=#82b366;fontStyle=4" parent="1" vertex="1">
          <mxGeometry x="1701.5" y="856" width="120" height="40" as="geometry" />
        </mxCell>
        <mxCell id="CE5s2COzBPPs-qAKDbu1-87" value="Exposure surface" style="ellipse;whiteSpace=wrap;html=1;fillColor=#d5e8d4;strokeColor=#82b366;fontStyle=4" parent="1" vertex="1">
          <mxGeometry x="1791.5" y="761" width="120" height="40" as="geometry" />
        </mxCell>
        <mxCell id="CE5s2COzBPPs-qAKDbu1-88" value="" style="endArrow=classic;html=1;rounded=0;exitX=0.5;exitY=0;exitDx=0;exitDy=0;entryX=0.461;entryY=1.058;entryDx=0;entryDy=0;entryPerimeter=0;" parent="1" source="CE5s2COzBPPs-qAKDbu1-86" target="CE5s2COzBPPs-qAKDbu1-87" edge="1">
          <mxGeometry relative="1" as="geometry">
            <mxPoint x="1665.5" y="806" as="sourcePoint" />
            <mxPoint x="1775.5" y="766" as="targetPoint" />
          </mxGeometry>
        </mxCell>
        <mxCell id="CE5s2COzBPPs-qAKDbu1-89" value="is-a" style="edgeLabel;resizable=0;html=1;align=center;verticalAlign=middle;" parent="CE5s2COzBPPs-qAKDbu1-88" connectable="0" vertex="1">
          <mxGeometry relative="1" as="geometry">
            <mxPoint x="-2" as="offset" />
          </mxGeometry>
        </mxCell>
        <mxCell id="CE5s2COzBPPs-qAKDbu1-90" value="" style="endArrow=classic;html=1;rounded=0;exitX=0.467;exitY=0.042;exitDx=0;exitDy=0;entryX=0.5;entryY=1;entryDx=0;entryDy=0;exitPerimeter=0;" parent="1" source="CE5s2COzBPPs-qAKDbu1-85" target="CE5s2COzBPPs-qAKDbu1-87" edge="1">
          <mxGeometry relative="1" as="geometry">
            <mxPoint x="1771.5" y="831" as="sourcePoint" />
            <mxPoint x="1856.5" y="813" as="targetPoint" />
          </mxGeometry>
        </mxCell>
        <mxCell id="CE5s2COzBPPs-qAKDbu1-91" value="h/a" style="edgeLabel;resizable=0;html=1;align=center;verticalAlign=middle;" parent="CE5s2COzBPPs-qAKDbu1-90" connectable="0" vertex="1">
          <mxGeometry relative="1" as="geometry">
            <mxPoint x="-2" as="offset" />
          </mxGeometry>
        </mxCell>
        <mxCell id="CE5s2COzBPPs-qAKDbu1-92" value="Skin" style="ellipse;whiteSpace=wrap;html=1;fillColor=#d5e8d4;strokeColor=#82b366;fontStyle=4" parent="1" vertex="1">
          <mxGeometry x="1616.5" y="971" width="60" height="40" as="geometry" />
        </mxCell>
        <mxCell id="CE5s2COzBPPs-qAKDbu1-93" value="Mouth" style="ellipse;whiteSpace=wrap;html=1;fillColor=#d5e8d4;strokeColor=#82b366;fontStyle=4" parent="1" vertex="1">
          <mxGeometry x="1756.5" y="971" width="70" height="40" as="geometry" />
        </mxCell>
        <mxCell id="CE5s2COzBPPs-qAKDbu1-94" value="Nose" style="ellipse;whiteSpace=wrap;html=1;fillColor=#d5e8d4;strokeColor=#82b366;fontStyle=4" parent="1" vertex="1">
          <mxGeometry x="1686.5" y="971" width="60" height="40" as="geometry" />
        </mxCell>
        <mxCell id="CE5s2COzBPPs-qAKDbu1-95" value="Organ" style="ellipse;whiteSpace=wrap;html=1;fillColor=#d5e8d4;strokeColor=#82b366;fontStyle=4" parent="1" vertex="1">
          <mxGeometry x="1850" y="971" width="70" height="40" as="geometry" />
        </mxCell>
        <mxCell id="CE5s2COzBPPs-qAKDbu1-96" value="Body fluid" style="ellipse;whiteSpace=wrap;html=1;fillColor=#d5e8d4;strokeColor=#82b366;fontStyle=4" parent="1" vertex="1">
          <mxGeometry x="1998.5" y="971" width="70" height="40" as="geometry" />
        </mxCell>
        <mxCell id="CE5s2COzBPPs-qAKDbu1-97" value="" style="endArrow=classic;html=1;rounded=0;exitX=0.589;exitY=0.058;exitDx=0;exitDy=0;entryX=0.5;entryY=1;entryDx=0;entryDy=0;exitPerimeter=0;" parent="1" source="CE5s2COzBPPs-qAKDbu1-92" target="CE5s2COzBPPs-qAKDbu1-86" edge="1">
          <mxGeometry relative="1" as="geometry">
            <mxPoint x="1771.5" y="861" as="sourcePoint" />
            <mxPoint x="1856.5" y="813" as="targetPoint" />
          </mxGeometry>
        </mxCell>
        <mxCell id="CE5s2COzBPPs-qAKDbu1-98" value="is-a" style="edgeLabel;resizable=0;html=1;align=center;verticalAlign=middle;" parent="CE5s2COzBPPs-qAKDbu1-97" connectable="0" vertex="1">
          <mxGeometry relative="1" as="geometry">
            <mxPoint x="-2" as="offset" />
          </mxGeometry>
        </mxCell>
        <mxCell id="CE5s2COzBPPs-qAKDbu1-99" value="" style="endArrow=classic;html=1;rounded=0;exitX=0.5;exitY=0;exitDx=0;exitDy=0;entryX=0.45;entryY=1.008;entryDx=0;entryDy=0;entryPerimeter=0;" parent="1" source="CE5s2COzBPPs-qAKDbu1-94" target="CE5s2COzBPPs-qAKDbu1-86" edge="1">
          <mxGeometry relative="1" as="geometry">
            <mxPoint x="1656.5" y="943" as="sourcePoint" />
            <mxPoint x="1771.5" y="901" as="targetPoint" />
          </mxGeometry>
        </mxCell>
        <mxCell id="CE5s2COzBPPs-qAKDbu1-100" value="is-a" style="edgeLabel;resizable=0;html=1;align=center;verticalAlign=middle;" parent="CE5s2COzBPPs-qAKDbu1-99" connectable="0" vertex="1">
          <mxGeometry relative="1" as="geometry">
            <mxPoint x="-2" as="offset" />
          </mxGeometry>
        </mxCell>
        <mxCell id="CE5s2COzBPPs-qAKDbu1-101" value="" style="endArrow=classic;html=1;rounded=0;exitX=0.5;exitY=0;exitDx=0;exitDy=0;entryX=0.5;entryY=1;entryDx=0;entryDy=0;" parent="1" source="CE5s2COzBPPs-qAKDbu1-93" target="CE5s2COzBPPs-qAKDbu1-86" edge="1">
          <mxGeometry relative="1" as="geometry">
            <mxPoint x="1726.5" y="981" as="sourcePoint" />
            <mxPoint x="1765.5" y="906" as="targetPoint" />
          </mxGeometry>
        </mxCell>
        <mxCell id="CE5s2COzBPPs-qAKDbu1-102" value="is-a" style="edgeLabel;resizable=0;html=1;align=center;verticalAlign=middle;" parent="CE5s2COzBPPs-qAKDbu1-101" connectable="0" vertex="1">
          <mxGeometry relative="1" as="geometry">
            <mxPoint x="-2" as="offset" />
          </mxGeometry>
        </mxCell>
        <mxCell id="CE5s2COzBPPs-qAKDbu1-104" value="" style="endArrow=classic;html=1;rounded=0;exitX=0.5;exitY=0;exitDx=0;exitDy=0;entryX=0.5;entryY=1;entryDx=0;entryDy=0;" parent="1" source="CE5s2COzBPPs-qAKDbu1-95" target="CE5s2COzBPPs-qAKDbu1-85" edge="1">
          <mxGeometry relative="1" as="geometry">
            <mxPoint x="1801.5" y="981" as="sourcePoint" />
            <mxPoint x="1771.5" y="906" as="targetPoint" />
          </mxGeometry>
        </mxCell>
        <mxCell id="CE5s2COzBPPs-qAKDbu1-105" value="is-a" style="edgeLabel;resizable=0;html=1;align=center;verticalAlign=middle;" parent="CE5s2COzBPPs-qAKDbu1-104" connectable="0" vertex="1">
          <mxGeometry relative="1" as="geometry">
            <mxPoint x="-2" as="offset" />
          </mxGeometry>
        </mxCell>
        <mxCell id="CE5s2COzBPPs-qAKDbu1-106" value="" style="endArrow=classic;html=1;rounded=0;exitX=0.5;exitY=0;exitDx=0;exitDy=0;entryX=0.5;entryY=1;entryDx=0;entryDy=0;" parent="1" source="CE5s2COzBPPs-qAKDbu1-96" target="CE5s2COzBPPs-qAKDbu1-85" edge="1">
          <mxGeometry relative="1" as="geometry">
            <mxPoint x="1921.5" y="981" as="sourcePoint" />
            <mxPoint x="1941.5" y="906" as="targetPoint" />
          </mxGeometry>
        </mxCell>
        <mxCell id="CE5s2COzBPPs-qAKDbu1-107" value="is-a" style="edgeLabel;resizable=0;html=1;align=center;verticalAlign=middle;" parent="CE5s2COzBPPs-qAKDbu1-106" connectable="0" vertex="1">
          <mxGeometry relative="1" as="geometry">
            <mxPoint x="-2" as="offset" />
          </mxGeometry>
        </mxCell>
        <mxCell id="CE5s2COzBPPs-qAKDbu1-110" value="Hair" style="ellipse;whiteSpace=wrap;html=1;fillColor=#d5e8d4;strokeColor=#82b366;fontStyle=4" parent="1" vertex="1">
          <mxGeometry x="1850" y="1071" width="70" height="40" as="geometry" />
        </mxCell>
        <mxCell id="CE5s2COzBPPs-qAKDbu1-111" value="Urine" style="ellipse;whiteSpace=wrap;html=1;fillColor=#d5e8d4;strokeColor=#82b366;fontStyle=4" parent="1" vertex="1">
          <mxGeometry x="2013.5" y="1071" width="70" height="40" as="geometry" />
        </mxCell>
        <mxCell id="CE5s2COzBPPs-qAKDbu1-113" value="Saliva" style="ellipse;whiteSpace=wrap;html=1;fillColor=#d5e8d4;strokeColor=#82b366;fontStyle=4" parent="1" vertex="1">
          <mxGeometry x="2093.5" y="1071" width="70" height="40" as="geometry" />
        </mxCell>
        <mxCell id="CE5s2COzBPPs-qAKDbu1-114" value="" style="endArrow=classic;html=1;rounded=0;exitX=0.5;exitY=0;exitDx=0;exitDy=0;entryX=0.5;entryY=1;entryDx=0;entryDy=0;" parent="1" source="CE5s2COzBPPs-qAKDbu1-111" target="CE5s2COzBPPs-qAKDbu1-96" edge="1">
          <mxGeometry relative="1" as="geometry">
            <mxPoint x="2044" y="981" as="sourcePoint" />
            <mxPoint x="1984" y="906" as="targetPoint" />
          </mxGeometry>
        </mxCell>
        <mxCell id="CE5s2COzBPPs-qAKDbu1-115" value="is-a" style="edgeLabel;resizable=0;html=1;align=center;verticalAlign=middle;" parent="CE5s2COzBPPs-qAKDbu1-114" connectable="0" vertex="1">
          <mxGeometry relative="1" as="geometry">
            <mxPoint x="-2" as="offset" />
          </mxGeometry>
        </mxCell>
        <mxCell id="CE5s2COzBPPs-qAKDbu1-116" value="" style="endArrow=classic;html=1;rounded=0;exitX=0.5;exitY=0;exitDx=0;exitDy=0;entryX=0.5;entryY=1;entryDx=0;entryDy=0;" parent="1" source="CE5s2COzBPPs-qAKDbu1-113" target="CE5s2COzBPPs-qAKDbu1-96" edge="1">
          <mxGeometry relative="1" as="geometry">
            <mxPoint x="2059" y="1081" as="sourcePoint" />
            <mxPoint x="2044" y="1021" as="targetPoint" />
          </mxGeometry>
        </mxCell>
        <mxCell id="CE5s2COzBPPs-qAKDbu1-117" value="is-a" style="edgeLabel;resizable=0;html=1;align=center;verticalAlign=middle;" parent="CE5s2COzBPPs-qAKDbu1-116" connectable="0" vertex="1">
          <mxGeometry relative="1" as="geometry">
            <mxPoint x="-2" as="offset" />
          </mxGeometry>
        </mxCell>
        <mxCell id="CE5s2COzBPPs-qAKDbu1-118" value="Blood" style="ellipse;whiteSpace=wrap;html=1;fillColor=#d5e8d4;strokeColor=#82b366;fontStyle=4" parent="1" vertex="1">
          <mxGeometry x="1932" y="1071" width="70" height="40" as="geometry" />
        </mxCell>
        <mxCell id="CE5s2COzBPPs-qAKDbu1-120" value="" style="endArrow=classic;html=1;rounded=0;exitX=0.5;exitY=0;exitDx=0;exitDy=0;entryX=0.44;entryY=0.975;entryDx=0;entryDy=0;entryPerimeter=0;" parent="1" source="CE5s2COzBPPs-qAKDbu1-118" target="CE5s2COzBPPs-qAKDbu1-96" edge="1">
          <mxGeometry relative="1" as="geometry">
            <mxPoint x="2139" y="1081" as="sourcePoint" />
            <mxPoint x="2044" y="1021" as="targetPoint" />
          </mxGeometry>
        </mxCell>
        <mxCell id="CE5s2COzBPPs-qAKDbu1-121" value="is-a" style="edgeLabel;resizable=0;html=1;align=center;verticalAlign=middle;" parent="CE5s2COzBPPs-qAKDbu1-120" connectable="0" vertex="1">
          <mxGeometry relative="1" as="geometry">
            <mxPoint x="-2" as="offset" />
          </mxGeometry>
        </mxCell>
        <mxCell id="CE5s2COzBPPs-qAKDbu1-122" value="Nails" style="ellipse;whiteSpace=wrap;html=1;fillColor=#d5e8d4;strokeColor=#82b366;fontStyle=4" parent="1" vertex="1">
          <mxGeometry x="1770" y="1071" width="70" height="40" as="geometry" />
        </mxCell>
        <mxCell id="CE5s2COzBPPs-qAKDbu1-126" value="Exposure route" style="ellipse;whiteSpace=wrap;html=1;fillColor=#d5e8d4;strokeColor=#82b366;fontStyle=4" parent="1" vertex="1">
          <mxGeometry x="40" y="590" width="120" height="50" as="geometry" />
        </mxCell>
        <mxCell id="CE5s2COzBPPs-qAKDbu1-128" value="Emission source" style="rounded=0;whiteSpace=wrap;html=1;fillColor=#d5e8d4;strokeColor=#82b366;fontStyle=4;dashed=1;" parent="1" vertex="1">
          <mxGeometry x="-335" y="629.5" width="110" height="50" as="geometry" />
        </mxCell>
        <mxCell id="CE5s2COzBPPs-qAKDbu1-129" value="Exposure pathway" style="rounded=0;whiteSpace=wrap;html=1;fillColor=#d5e8d4;strokeColor=#82b366;fontStyle=4" parent="1" vertex="1">
          <mxGeometry x="-125" y="695" width="110" height="50" as="geometry" />
        </mxCell>
        <mxCell id="CE5s2COzBPPs-qAKDbu1-130" value="" style="endArrow=classic;html=1;rounded=0;entryX=1;entryY=0.5;entryDx=0;entryDy=0;exitX=0.5;exitY=0;exitDx=0;exitDy=0;" parent="1" source="CE5s2COzBPPs-qAKDbu1-129" target="CE5s2COzBPPs-qAKDbu1-128" edge="1">
          <mxGeometry relative="1" as="geometry">
            <mxPoint x="-140" y="660" as="sourcePoint" />
            <mxPoint x="-260" y="605" as="targetPoint" />
          </mxGeometry>
        </mxCell>
        <mxCell id="CE5s2COzBPPs-qAKDbu1-131" value="h/a" style="edgeLabel;resizable=0;html=1;align=center;verticalAlign=middle;" parent="CE5s2COzBPPs-qAKDbu1-130" connectable="0" vertex="1">
          <mxGeometry relative="1" as="geometry">
            <mxPoint x="-2" as="offset" />
          </mxGeometry>
        </mxCell>
        <mxCell id="CE5s2COzBPPs-qAKDbu1-132" value="Exposure pathway. [adapted from EEA Glossary and EPA; and project meetings]. &#xa;The course a substance takes from its source to the exposed individual or population, or a part of that course. An exposure pathway involves in general one or several transfer mechanisms from emission sources to exposure sources, and/or between several related exposure sources (.e.g. from soil to food)." style="text;whiteSpace=wrap;html=1;" parent="1" vertex="1">
          <mxGeometry x="-335" y="745" width="565" height="70" as="geometry" />
        </mxCell>
        <mxCell id="CE5s2COzBPPs-qAKDbu1-133" value="" style="endArrow=classic;html=1;rounded=0;entryX=0.497;entryY=1.1;entryDx=0;entryDy=0;exitX=0.5;exitY=0;exitDx=0;exitDy=0;entryPerimeter=0;" parent="1" source="CE5s2COzBPPs-qAKDbu1-129" target="CE5s2COzBPPs-qAKDbu1-169" edge="1">
          <mxGeometry relative="1" as="geometry">
            <mxPoint x="-140" y="680" as="sourcePoint" />
            <mxPoint x="-60" y="605" as="targetPoint" />
          </mxGeometry>
        </mxCell>
        <mxCell id="CE5s2COzBPPs-qAKDbu1-134" value="h/a" style="edgeLabel;resizable=0;html=1;align=center;verticalAlign=middle;" parent="CE5s2COzBPPs-qAKDbu1-133" connectable="0" vertex="1">
          <mxGeometry relative="1" as="geometry">
            <mxPoint x="-2" as="offset" />
          </mxGeometry>
        </mxCell>
        <mxCell id="CE5s2COzBPPs-qAKDbu1-135" value="" style="endArrow=classic;html=1;rounded=0;entryX=0.5;entryY=1;entryDx=0;entryDy=0;exitX=0.5;exitY=0;exitDx=0;exitDy=0;" parent="1" source="CE5s2COzBPPs-qAKDbu1-129" target="CE5s2COzBPPs-qAKDbu1-126" edge="1">
          <mxGeometry relative="1" as="geometry">
            <mxPoint x="-85" y="655" as="sourcePoint" />
            <mxPoint x="-50" y="615" as="targetPoint" />
          </mxGeometry>
        </mxCell>
        <mxCell id="CE5s2COzBPPs-qAKDbu1-136" value="h/a" style="edgeLabel;resizable=0;html=1;align=center;verticalAlign=middle;" parent="CE5s2COzBPPs-qAKDbu1-135" connectable="0" vertex="1">
          <mxGeometry relative="1" as="geometry">
            <mxPoint x="-2" as="offset" />
          </mxGeometry>
        </mxCell>
        <mxCell id="CE5s2COzBPPs-qAKDbu1-144" value="" style="endArrow=classic;html=1;rounded=0;entryX=0.45;entryY=0.039;entryDx=0;entryDy=0;exitX=0.441;exitY=1.033;exitDx=0;exitDy=0;exitPerimeter=0;entryPerimeter=0;" parent="1" source="CE5s2COzBPPs-qAKDbu1-158" target="CE5s2COzBPPs-qAKDbu1-156" edge="1">
          <mxGeometry relative="1" as="geometry">
            <mxPoint x="120.25" y="274.1600000000001" as="sourcePoint" />
            <mxPoint x="-82" y="357" as="targetPoint" />
          </mxGeometry>
        </mxCell>
        <mxCell id="CE5s2COzBPPs-qAKDbu1-145" value="is-a" style="edgeLabel;resizable=0;html=1;align=center;verticalAlign=middle;" parent="CE5s2COzBPPs-qAKDbu1-144" connectable="0" vertex="1">
          <mxGeometry relative="1" as="geometry">
            <mxPoint x="-2" as="offset" />
          </mxGeometry>
        </mxCell>
        <mxCell id="CE5s2COzBPPs-qAKDbu1-146" value="" style="endArrow=classic;html=1;rounded=0;exitX=0.5;exitY=1;exitDx=0;exitDy=0;entryX=0.432;entryY=-0.006;entryDx=0;entryDy=0;entryPerimeter=0;" parent="1" source="CE5s2COzBPPs-qAKDbu1-159" target="CE5s2COzBPPs-qAKDbu1-156" edge="1">
          <mxGeometry relative="1" as="geometry">
            <mxPoint x="-5.900000000000546" y="275.1100000000001" as="sourcePoint" />
            <mxPoint x="-82" y="357" as="targetPoint" />
          </mxGeometry>
        </mxCell>
        <mxCell id="CE5s2COzBPPs-qAKDbu1-147" value="is-a" style="edgeLabel;resizable=0;html=1;align=center;verticalAlign=middle;" parent="CE5s2COzBPPs-qAKDbu1-146" connectable="0" vertex="1">
          <mxGeometry relative="1" as="geometry">
            <mxPoint x="-2" as="offset" />
          </mxGeometry>
        </mxCell>
        <mxCell id="CE5s2COzBPPs-qAKDbu1-148" value="" style="endArrow=classic;html=1;rounded=0;entryX=0.456;entryY=-0.021;entryDx=0;entryDy=0;exitX=0.5;exitY=1;exitDx=0;exitDy=0;entryPerimeter=0;" parent="1" source="CE5s2COzBPPs-qAKDbu1-160" target="CE5s2COzBPPs-qAKDbu1-156" edge="1">
          <mxGeometry relative="1" as="geometry">
            <mxPoint x="-137" y="271.8600000000001" as="sourcePoint" />
            <mxPoint x="-82" y="357" as="targetPoint" />
          </mxGeometry>
        </mxCell>
        <mxCell id="CE5s2COzBPPs-qAKDbu1-149" value="is-a" style="edgeLabel;resizable=0;html=1;align=center;verticalAlign=middle;" parent="CE5s2COzBPPs-qAKDbu1-148" connectable="0" vertex="1">
          <mxGeometry relative="1" as="geometry">
            <mxPoint x="-2" as="offset" />
          </mxGeometry>
        </mxCell>
        <mxCell id="CE5s2COzBPPs-qAKDbu1-150" value="" style="endArrow=classic;html=1;rounded=0;entryX=0.444;entryY=0.053;entryDx=0;entryDy=0;entryPerimeter=0;exitX=0.5;exitY=1;exitDx=0;exitDy=0;" parent="1" source="CE5s2COzBPPs-qAKDbu1-161" target="CE5s2COzBPPs-qAKDbu1-156" edge="1">
          <mxGeometry relative="1" as="geometry">
            <mxPoint x="-267" y="271.8600000000001" as="sourcePoint" />
            <mxPoint x="-82.88000000000011" y="354.04999999999995" as="targetPoint" />
          </mxGeometry>
        </mxCell>
        <mxCell id="CE5s2COzBPPs-qAKDbu1-151" value="is-a" style="edgeLabel;resizable=0;html=1;align=center;verticalAlign=middle;" parent="CE5s2COzBPPs-qAKDbu1-150" connectable="0" vertex="1">
          <mxGeometry relative="1" as="geometry">
            <mxPoint x="-2" as="offset" />
          </mxGeometry>
        </mxCell>
        <mxCell id="CE5s2COzBPPs-qAKDbu1-154" value="" style="endArrow=classic;html=1;rounded=0;exitX=0.426;exitY=0.967;exitDx=0;exitDy=0;exitPerimeter=0;" parent="1" source="CE5s2COzBPPs-qAKDbu1-162" edge="1">
          <mxGeometry relative="1" as="geometry">
            <mxPoint x="-285" y="130" as="sourcePoint" />
            <mxPoint x="-270.85076159507116" y="221.86000000000013" as="targetPoint" />
          </mxGeometry>
        </mxCell>
        <mxCell id="CE5s2COzBPPs-qAKDbu1-155" value="is-a" style="edgeLabel;resizable=0;html=1;align=center;verticalAlign=middle;" parent="CE5s2COzBPPs-qAKDbu1-154" connectable="0" vertex="1">
          <mxGeometry relative="1" as="geometry">
            <mxPoint x="-2" as="offset" />
          </mxGeometry>
        </mxCell>
        <mxCell id="CE5s2COzBPPs-qAKDbu1-156" value="Exposure source" style="ellipse;whiteSpace=wrap;html=1;fillColor=#d5e8d4;strokeColor=#82b366;fontStyle=4" parent="1" vertex="1">
          <mxGeometry x="-140" y="359" width="120" height="50" as="geometry" />
        </mxCell>
        <mxCell id="CE5s2COzBPPs-qAKDbu1-158" value="(non-dietary) consumer products" style="ellipse;whiteSpace=wrap;html=1;fillColor=#d5e8d4;strokeColor=#82b366;fontStyle=4" parent="1" vertex="1">
          <mxGeometry x="70" y="221.86" width="120" height="50" as="geometry" />
        </mxCell>
        <mxCell id="CE5s2COzBPPs-qAKDbu1-159" value="Food products" style="ellipse;whiteSpace=wrap;html=1;fillColor=#d5e8d4;strokeColor=#82b366;fontStyle=4" parent="1" vertex="1">
          <mxGeometry x="-65" y="221.86" width="120" height="50" as="geometry" />
        </mxCell>
        <mxCell id="CE5s2COzBPPs-qAKDbu1-160" value="Pharmaceuticals" style="ellipse;whiteSpace=wrap;html=1;fillColor=#d5e8d4;strokeColor=#82b366;fontStyle=4" parent="1" vertex="1">
          <mxGeometry x="-200" y="221.86" width="120" height="50" as="geometry" />
        </mxCell>
        <mxCell id="CE5s2COzBPPs-qAKDbu1-161" value="Environmental sources" style="ellipse;whiteSpace=wrap;html=1;fillColor=#d5e8d4;strokeColor=#82b366;fontStyle=4" parent="1" vertex="1">
          <mxGeometry x="-330" y="221.86" width="120" height="50" as="geometry" />
        </mxCell>
        <mxCell id="CE5s2COzBPPs-qAKDbu1-162" value="Dust" style="ellipse;whiteSpace=wrap;html=1;fillColor=#d5e8d4;strokeColor=#82b366;fontStyle=4" parent="1" vertex="1">
          <mxGeometry x="-360" y="100" width="70" height="50" as="geometry" />
        </mxCell>
        <mxCell id="CE5s2COzBPPs-qAKDbu1-163" value="Air" style="ellipse;whiteSpace=wrap;html=1;fillColor=#d5e8d4;strokeColor=#82b366;fontStyle=4" parent="1" vertex="1">
          <mxGeometry x="-280" y="100" width="70" height="50" as="geometry" />
        </mxCell>
        <mxCell id="CE5s2COzBPPs-qAKDbu1-164" value="" style="endArrow=classic;html=1;rounded=0;exitX=0.576;exitY=1.07;exitDx=0;exitDy=0;exitPerimeter=0;entryX=0.5;entryY=0;entryDx=0;entryDy=0;" parent="1" source="CE5s2COzBPPs-qAKDbu1-163" target="CE5s2COzBPPs-qAKDbu1-161" edge="1">
          <mxGeometry relative="1" as="geometry">
            <mxPoint x="-300" y="158" as="sourcePoint" />
            <mxPoint x="-260.85076159507116" y="231.86000000000013" as="targetPoint" />
          </mxGeometry>
        </mxCell>
        <mxCell id="CE5s2COzBPPs-qAKDbu1-165" value="is-a" style="edgeLabel;resizable=0;html=1;align=center;verticalAlign=middle;" parent="CE5s2COzBPPs-qAKDbu1-164" connectable="0" vertex="1">
          <mxGeometry relative="1" as="geometry">
            <mxPoint x="-2" as="offset" />
          </mxGeometry>
        </mxCell>
        <mxCell id="CE5s2COzBPPs-qAKDbu1-166" value="Soil" style="ellipse;whiteSpace=wrap;html=1;fillColor=#d5e8d4;strokeColor=#82b366;fontStyle=4" parent="1" vertex="1">
          <mxGeometry x="-200" y="100" width="70" height="50" as="geometry" />
        </mxCell>
        <mxCell id="CE5s2COzBPPs-qAKDbu1-167" value="" style="endArrow=classic;html=1;rounded=0;entryX=0.5;entryY=0;entryDx=0;entryDy=0;exitX=0.5;exitY=1;exitDx=0;exitDy=0;" parent="1" source="CE5s2COzBPPs-qAKDbu1-166" target="CE5s2COzBPPs-qAKDbu1-161" edge="1">
          <mxGeometry relative="1" as="geometry">
            <mxPoint x="-230" y="164" as="sourcePoint" />
            <mxPoint x="-260" y="232" as="targetPoint" />
          </mxGeometry>
        </mxCell>
        <mxCell id="CE5s2COzBPPs-qAKDbu1-168" value="is-a" style="edgeLabel;resizable=0;html=1;align=center;verticalAlign=middle;" parent="CE5s2COzBPPs-qAKDbu1-167" connectable="0" vertex="1">
          <mxGeometry relative="1" as="geometry">
            <mxPoint x="-2" as="offset" />
          </mxGeometry>
        </mxCell>
        <mxCell id="CE5s2COzBPPs-qAKDbu1-169" value="Exposure source" style="ellipse;whiteSpace=wrap;html=1;fillColor=#d5e8d4;strokeColor=#82b366;fontStyle=4" parent="1" vertex="1">
          <mxGeometry x="-40" y="540" width="120" height="50" as="geometry" />
        </mxCell>
        <mxCell id="CE5s2COzBPPs-qAKDbu1-170" value="Population" style="rounded=0;whiteSpace=wrap;html=1;fillColor=#d5e8d4;strokeColor=#82b366;" parent="1" vertex="1">
          <mxGeometry x="500" y="821" width="110" height="50" as="geometry" />
        </mxCell>
        <mxCell id="CE5s2COzBPPs-qAKDbu1-171" value="Individual" style="rounded=0;whiteSpace=wrap;html=1;fillColor=#d5e8d4;strokeColor=#82b366;" parent="1" vertex="1">
          <mxGeometry x="700" y="821" width="110" height="50" as="geometry" />
        </mxCell>
        <mxCell id="CE5s2COzBPPs-qAKDbu1-172" value="" style="endArrow=classic;html=1;rounded=0;exitX=0.5;exitY=0;exitDx=0;exitDy=0;entryX=0.5;entryY=1;entryDx=0;entryDy=0;" parent="1" source="5XHuWZA4LQ0ceYuqT-mD-42" target="5XHuWZA4LQ0ceYuqT-mD-40" edge="1">
          <mxGeometry relative="1" as="geometry">
            <mxPoint x="1107" y="679" as="sourcePoint" />
            <mxPoint x="1112" y="730" as="targetPoint" />
          </mxGeometry>
        </mxCell>
        <mxCell id="CE5s2COzBPPs-qAKDbu1-173" value="is-a" style="edgeLabel;resizable=0;html=1;align=center;verticalAlign=middle;" parent="CE5s2COzBPPs-qAKDbu1-172" connectable="0" vertex="1">
          <mxGeometry relative="1" as="geometry">
            <mxPoint x="-2" as="offset" />
          </mxGeometry>
        </mxCell>
        <mxCell id="CE5s2COzBPPs-qAKDbu1-174" value="" style="endArrow=classic;html=1;rounded=0;exitX=0.442;exitY=-0.03;exitDx=0;exitDy=0;entryX=0.5;entryY=1;entryDx=0;entryDy=0;exitPerimeter=0;" parent="1" source="5XHuWZA4LQ0ceYuqT-mD-43" target="5XHuWZA4LQ0ceYuqT-mD-40" edge="1">
          <mxGeometry relative="1" as="geometry">
            <mxPoint x="1175" y="831" as="sourcePoint" />
            <mxPoint x="1135" y="780" as="targetPoint" />
          </mxGeometry>
        </mxCell>
        <mxCell id="CE5s2COzBPPs-qAKDbu1-175" value="is-a" style="edgeLabel;resizable=0;html=1;align=center;verticalAlign=middle;" parent="CE5s2COzBPPs-qAKDbu1-174" connectable="0" vertex="1">
          <mxGeometry relative="1" as="geometry">
            <mxPoint x="-2" as="offset" />
          </mxGeometry>
        </mxCell>
        <mxCell id="CE5s2COzBPPs-qAKDbu1-176" value="Exposure source" style="ellipse;whiteSpace=wrap;html=1;fillColor=#d5e8d4;strokeColor=#82b366;fontStyle=4" parent="1" vertex="1">
          <mxGeometry x="690" y="515" width="120" height="50" as="geometry" />
        </mxCell>
        <mxCell id="CE5s2COzBPPs-qAKDbu1-178" value="Exposure subject" style="rounded=0;whiteSpace=wrap;html=1;fillColor=#d5e8d4;strokeColor=#82b366;" parent="1" vertex="1">
          <mxGeometry x="655" y="720" width="110" height="50" as="geometry" />
        </mxCell>
        <mxCell id="CE5s2COzBPPs-qAKDbu1-180" value="" style="endArrow=classic;html=1;rounded=0;entryX=0.5;entryY=1;entryDx=0;entryDy=0;exitX=0.55;exitY=0.027;exitDx=0;exitDy=0;exitPerimeter=0;" parent="1" source="5XHuWZA4LQ0ceYuqT-mD-1" target="5XHuWZA4LQ0ceYuqT-mD-8" edge="1">
          <mxGeometry relative="1" as="geometry">
            <mxPoint x="906" y="630" as="sourcePoint" />
            <mxPoint x="910" y="510" as="targetPoint" />
          </mxGeometry>
        </mxCell>
        <mxCell id="CE5s2COzBPPs-qAKDbu1-181" value="h/a" style="edgeLabel;resizable=0;html=1;align=center;verticalAlign=middle;" parent="CE5s2COzBPPs-qAKDbu1-180" connectable="0" vertex="1">
          <mxGeometry relative="1" as="geometry">
            <mxPoint x="-2" as="offset" />
          </mxGeometry>
        </mxCell>
        <mxCell id="CE5s2COzBPPs-qAKDbu1-182" value="" style="endArrow=classic;html=1;rounded=0;entryX=0.453;entryY=0.027;entryDx=0;entryDy=0;exitX=0.5;exitY=1;exitDx=0;exitDy=0;entryPerimeter=0;" parent="1" source="5XHuWZA4LQ0ceYuqT-mD-1" target="CE5s2COzBPPs-qAKDbu1-178" edge="1">
          <mxGeometry relative="1" as="geometry">
            <mxPoint x="901" y="626" as="sourcePoint" />
            <mxPoint x="790" y="590" as="targetPoint" />
          </mxGeometry>
        </mxCell>
        <mxCell id="CE5s2COzBPPs-qAKDbu1-183" value="h/a" style="edgeLabel;resizable=0;html=1;align=center;verticalAlign=middle;" parent="CE5s2COzBPPs-qAKDbu1-182" connectable="0" vertex="1">
          <mxGeometry relative="1" as="geometry">
            <mxPoint x="-2" as="offset" />
          </mxGeometry>
        </mxCell>
        <mxCell id="CE5s2COzBPPs-qAKDbu1-186" value="" style="endArrow=classic;html=1;rounded=0;exitX=0.431;exitY=0.965;exitDx=0;exitDy=0;entryX=0.5;entryY=0;entryDx=0;entryDy=0;exitPerimeter=0;" parent="1" source="CE5s2COzBPPs-qAKDbu1-178" target="CE5s2COzBPPs-qAKDbu1-170" edge="1">
          <mxGeometry relative="1" as="geometry">
            <mxPoint x="794" y="795" as="sourcePoint" />
            <mxPoint x="890" y="745" as="targetPoint" />
          </mxGeometry>
        </mxCell>
        <mxCell id="CE5s2COzBPPs-qAKDbu1-187" value="is-a" style="edgeLabel;resizable=0;html=1;align=center;verticalAlign=middle;" parent="CE5s2COzBPPs-qAKDbu1-186" connectable="0" vertex="1">
          <mxGeometry relative="1" as="geometry">
            <mxPoint x="-2" as="offset" />
          </mxGeometry>
        </mxCell>
        <mxCell id="CE5s2COzBPPs-qAKDbu1-188" value="" style="endArrow=classic;html=1;rounded=0;exitX=0.448;exitY=0.965;exitDx=0;exitDy=0;entryX=0.5;entryY=0;entryDx=0;entryDy=0;exitPerimeter=0;" parent="1" source="CE5s2COzBPPs-qAKDbu1-178" target="CE5s2COzBPPs-qAKDbu1-171" edge="1">
          <mxGeometry relative="1" as="geometry">
            <mxPoint x="720" y="780" as="sourcePoint" />
            <mxPoint x="595" y="825" as="targetPoint" />
          </mxGeometry>
        </mxCell>
        <mxCell id="CE5s2COzBPPs-qAKDbu1-189" value="is-a" style="edgeLabel;resizable=0;html=1;align=center;verticalAlign=middle;" parent="CE5s2COzBPPs-qAKDbu1-188" connectable="0" vertex="1">
          <mxGeometry relative="1" as="geometry">
            <mxPoint x="-2" as="offset" />
          </mxGeometry>
        </mxCell>
        <mxCell id="CE5s2COzBPPs-qAKDbu1-191" value="" style="endArrow=classic;html=1;rounded=0;entryX=0.5;entryY=0;entryDx=0;entryDy=0;exitX=0.539;exitY=1.045;exitDx=0;exitDy=0;exitPerimeter=0;" parent="1" source="5XHuWZA4LQ0ceYuqT-mD-42" target="5XHuWZA4LQ0ceYuqT-mD-44" edge="1">
          <mxGeometry relative="1" as="geometry">
            <mxPoint x="905" y="680" as="sourcePoint" />
            <mxPoint x="785" y="731" as="targetPoint" />
          </mxGeometry>
        </mxCell>
        <mxCell id="CE5s2COzBPPs-qAKDbu1-192" value="h/a" style="edgeLabel;resizable=0;html=1;align=center;verticalAlign=middle;" parent="CE5s2COzBPPs-qAKDbu1-191" connectable="0" vertex="1">
          <mxGeometry relative="1" as="geometry">
            <mxPoint x="-2" as="offset" />
          </mxGeometry>
        </mxCell>
        <mxCell id="CE5s2COzBPPs-qAKDbu1-193" value="" style="endArrow=classic;html=1;rounded=0;entryX=0.5;entryY=0;entryDx=0;entryDy=0;exitX=0.556;exitY=1.057;exitDx=0;exitDy=0;exitPerimeter=0;" parent="1" source="5XHuWZA4LQ0ceYuqT-mD-42" target="5XHuWZA4LQ0ceYuqT-mD-45" edge="1">
          <mxGeometry relative="1" as="geometry">
            <mxPoint x="1179" y="883" as="sourcePoint" />
            <mxPoint x="1125" y="921" as="targetPoint" />
          </mxGeometry>
        </mxCell>
        <mxCell id="CE5s2COzBPPs-qAKDbu1-194" value="h/a" style="edgeLabel;resizable=0;html=1;align=center;verticalAlign=middle;" parent="CE5s2COzBPPs-qAKDbu1-193" connectable="0" vertex="1">
          <mxGeometry relative="1" as="geometry">
            <mxPoint x="-2" as="offset" />
          </mxGeometry>
        </mxCell>
        <mxCell id="CE5s2COzBPPs-qAKDbu1-199" value="&lt;b&gt;&lt;font style=&quot;font-size: 24px;&quot;&gt;Fate&lt;/font&gt;&lt;/b&gt;" style="text;html=1;strokeColor=none;fillColor=none;align=center;verticalAlign=middle;whiteSpace=wrap;rounded=0;" parent="1" vertex="1">
          <mxGeometry x="280" y="400" width="60" height="30" as="geometry" />
        </mxCell>
        <mxCell id="CE5s2COzBPPs-qAKDbu1-203" value="Exposure duration" style="rounded=0;whiteSpace=wrap;html=1;fillColor=#d5e8d4;strokeColor=#82b366;" parent="1" vertex="1">
          <mxGeometry x="840" y="720" width="110" height="50" as="geometry" />
        </mxCell>
        <mxCell id="CE5s2COzBPPs-qAKDbu1-204" value="" style="endArrow=classic;html=1;rounded=0;entryX=0.5;entryY=0;entryDx=0;entryDy=0;exitX=0.5;exitY=1;exitDx=0;exitDy=0;" parent="1" source="5XHuWZA4LQ0ceYuqT-mD-1" target="CE5s2COzBPPs-qAKDbu1-203" edge="1">
          <mxGeometry relative="1" as="geometry">
            <mxPoint x="905" y="680" as="sourcePoint" />
            <mxPoint x="715" y="731" as="targetPoint" />
          </mxGeometry>
        </mxCell>
        <mxCell id="CE5s2COzBPPs-qAKDbu1-205" value="h/a" style="edgeLabel;resizable=0;html=1;align=center;verticalAlign=middle;" parent="CE5s2COzBPPs-qAKDbu1-204" connectable="0" vertex="1">
          <mxGeometry relative="1" as="geometry">
            <mxPoint x="-2" as="offset" />
          </mxGeometry>
        </mxCell>
        <mxCell id="CE5s2COzBPPs-qAKDbu1-207" value="Exposure event" style="rounded=0;whiteSpace=wrap;html=1;fillColor=#d5e8d4;strokeColor=#82b366;" parent="1" vertex="1">
          <mxGeometry x="20" y="-111" width="110" height="50" as="geometry" />
        </mxCell>
        <mxCell id="CE5s2COzBPPs-qAKDbu1-212" value="Exposure event. [adapted from (Heinemeyer et al. 2022)]. &#xa;A single event during which there is continuous contact between a substance and a target. The event is normally of a short duration (less than 24 hours). The attribute &quot;continuous contact&quot; in this context means that there is no interruption of the exposure." style="text;whiteSpace=wrap;html=1;" parent="1" vertex="1">
          <mxGeometry x="-149" y="-15" width="470" height="65" as="geometry" />
        </mxCell>
        <mxCell id="CE5s2COzBPPs-qAKDbu1-218" value="Exposure duration. [adapted from (Heinemeyer et al. 2022)].  &#xa;The length of time over which continuous or intermittent contacts occur between a substance and a target. For example, if an individual is in contact with an agent for 10 min, it is short term exposure. If the contact is every day for 300 days over a 1-year time period, the exposure duration is 1 year; it is long-term exposure." style="text;whiteSpace=wrap;html=1;" parent="1" vertex="1">
          <mxGeometry x="340" y="-58" width="500" height="110" as="geometry" />
        </mxCell>
        <mxCell id="CE5s2COzBPPs-qAKDbu1-219" value="Exposure duration" style="rounded=0;whiteSpace=wrap;html=1;fillColor=#d5e8d4;strokeColor=#82b366;" parent="1" vertex="1">
          <mxGeometry x="500" y="-111" width="110" height="50" as="geometry" />
        </mxCell>
        <mxCell id="CE5s2COzBPPs-qAKDbu1-221" value="Exposure frequency. [adapted from (Heinemeyer et al. 2022)]. &#xa;The number of exposure events in an exposure duration." style="text;whiteSpace=wrap;html=1;" parent="1" vertex="1">
          <mxGeometry x="340" y="18" width="480" height="40" as="geometry" />
        </mxCell>
        <mxCell id="CE5s2COzBPPs-qAKDbu1-222" value="" style="endArrow=classic;html=1;rounded=0;exitX=0;exitY=0.5;exitDx=0;exitDy=0;entryX=1;entryY=0.5;entryDx=0;entryDy=0;" parent="1" source="CE5s2COzBPPs-qAKDbu1-219" target="CE5s2COzBPPs-qAKDbu1-207" edge="1">
          <mxGeometry relative="1" as="geometry">
            <mxPoint x="225" y="7" as="sourcePoint" />
            <mxPoint x="165" y="-54" as="targetPoint" />
          </mxGeometry>
        </mxCell>
        <mxCell id="CE5s2COzBPPs-qAKDbu1-223" value="has-one-or-more" style="edgeLabel;resizable=0;html=1;align=center;verticalAlign=middle;" parent="CE5s2COzBPPs-qAKDbu1-222" connectable="0" vertex="1">
          <mxGeometry relative="1" as="geometry">
            <mxPoint x="-2" as="offset" />
          </mxGeometry>
        </mxCell>
        <mxCell id="CE5s2COzBPPs-qAKDbu1-225" value="Exposure event" style="rounded=0;whiteSpace=wrap;html=1;fillColor=#d5e8d4;strokeColor=#82b366;" parent="1" vertex="1">
          <mxGeometry x="840" y="821" width="110" height="50" as="geometry" />
        </mxCell>
        <mxCell id="CE5s2COzBPPs-qAKDbu1-226" value="" style="endArrow=classic;html=1;rounded=0;exitX=0.5;exitY=1;exitDx=0;exitDy=0;entryX=0.5;entryY=0;entryDx=0;entryDy=0;" parent="1" source="CE5s2COzBPPs-qAKDbu1-203" target="CE5s2COzBPPs-qAKDbu1-225" edge="1">
          <mxGeometry relative="1" as="geometry">
            <mxPoint x="1080" y="761" as="sourcePoint" />
            <mxPoint x="760" y="761" as="targetPoint" />
          </mxGeometry>
        </mxCell>
        <mxCell id="CE5s2COzBPPs-qAKDbu1-227" value="has-one-or-more" style="edgeLabel;resizable=0;html=1;align=center;verticalAlign=middle;" parent="CE5s2COzBPPs-qAKDbu1-226" connectable="0" vertex="1">
          <mxGeometry relative="1" as="geometry">
            <mxPoint x="-2" as="offset" />
          </mxGeometry>
        </mxCell>
        <mxCell id="CE5s2COzBPPs-qAKDbu1-230" value="Start" style="ellipse;whiteSpace=wrap;html=1;fillColor=#d5e8d4;strokeColor=#82b366;fontStyle=0" parent="1" vertex="1">
          <mxGeometry x="365" y="-183" width="120" height="40" as="geometry" />
        </mxCell>
        <mxCell id="CE5s2COzBPPs-qAKDbu1-231" value="End" style="ellipse;whiteSpace=wrap;html=1;fillColor=#d5e8d4;strokeColor=#82b366;fontStyle=0" parent="1" vertex="1">
          <mxGeometry x="505" y="-183" width="120" height="40" as="geometry" />
        </mxCell>
        <mxCell id="CE5s2COzBPPs-qAKDbu1-232" value="Start" style="ellipse;whiteSpace=wrap;html=1;fillColor=#d5e8d4;strokeColor=#82b366;fontStyle=0" parent="1" vertex="1">
          <mxGeometry x="-100" y="-190" width="120" height="40" as="geometry" />
        </mxCell>
        <mxCell id="CE5s2COzBPPs-qAKDbu1-233" value="End" style="ellipse;whiteSpace=wrap;html=1;fillColor=#d5e8d4;strokeColor=#82b366;fontStyle=0" parent="1" vertex="1">
          <mxGeometry x="40" y="-190" width="120" height="40" as="geometry" />
        </mxCell>
        <mxCell id="CE5s2COzBPPs-qAKDbu1-236" value="Contact type (intermittent / continuous)" style="ellipse;whiteSpace=wrap;html=1;fillColor=#d5e8d4;strokeColor=#82b366;fontStyle=0" parent="1" vertex="1">
          <mxGeometry x="645" y="-183" width="170" height="40" as="geometry" />
        </mxCell>
        <mxCell id="CE5s2COzBPPs-qAKDbu1-238" value="" style="endArrow=classic;html=1;rounded=0;entryX=0.542;entryY=1;entryDx=0;entryDy=0;exitX=0.5;exitY=0;exitDx=0;exitDy=0;entryPerimeter=0;" parent="1" source="CE5s2COzBPPs-qAKDbu1-219" target="CE5s2COzBPPs-qAKDbu1-230" edge="1">
          <mxGeometry relative="1" as="geometry">
            <mxPoint x="560" y="-183" as="sourcePoint" />
            <mxPoint x="351" y="-96" as="targetPoint" />
          </mxGeometry>
        </mxCell>
        <mxCell id="CE5s2COzBPPs-qAKDbu1-239" value="h/a" style="edgeLabel;resizable=0;html=1;align=center;verticalAlign=middle;" parent="CE5s2COzBPPs-qAKDbu1-238" connectable="0" vertex="1">
          <mxGeometry relative="1" as="geometry">
            <mxPoint x="-2" as="offset" />
          </mxGeometry>
        </mxCell>
        <mxCell id="CE5s2COzBPPs-qAKDbu1-240" value="" style="endArrow=classic;html=1;rounded=0;exitX=0.5;exitY=0;exitDx=0;exitDy=0;" parent="1" source="CE5s2COzBPPs-qAKDbu1-219" target="CE5s2COzBPPs-qAKDbu1-231" edge="1">
          <mxGeometry relative="1" as="geometry">
            <mxPoint x="565" y="-101" as="sourcePoint" />
            <mxPoint x="440" y="-133" as="targetPoint" />
          </mxGeometry>
        </mxCell>
        <mxCell id="CE5s2COzBPPs-qAKDbu1-241" value="h/a" style="edgeLabel;resizable=0;html=1;align=center;verticalAlign=middle;" parent="CE5s2COzBPPs-qAKDbu1-240" connectable="0" vertex="1">
          <mxGeometry relative="1" as="geometry">
            <mxPoint x="-2" as="offset" />
          </mxGeometry>
        </mxCell>
        <mxCell id="CE5s2COzBPPs-qAKDbu1-242" value="" style="endArrow=classic;html=1;rounded=0;entryX=0.514;entryY=1.008;entryDx=0;entryDy=0;entryPerimeter=0;exitX=0.5;exitY=0;exitDx=0;exitDy=0;" parent="1" source="CE5s2COzBPPs-qAKDbu1-219" target="CE5s2COzBPPs-qAKDbu1-236" edge="1">
          <mxGeometry relative="1" as="geometry">
            <mxPoint x="550" y="-113" as="sourcePoint" />
            <mxPoint x="571" y="-133" as="targetPoint" />
          </mxGeometry>
        </mxCell>
        <mxCell id="CE5s2COzBPPs-qAKDbu1-243" value="h/a" style="edgeLabel;resizable=0;html=1;align=center;verticalAlign=middle;" parent="CE5s2COzBPPs-qAKDbu1-242" connectable="0" vertex="1">
          <mxGeometry relative="1" as="geometry">
            <mxPoint x="-2" as="offset" />
          </mxGeometry>
        </mxCell>
        <mxCell id="CE5s2COzBPPs-qAKDbu1-244" value="" style="endArrow=classic;html=1;rounded=0;entryX=0.5;entryY=1;entryDx=0;entryDy=0;exitX=0.5;exitY=0;exitDx=0;exitDy=0;" parent="1" source="CE5s2COzBPPs-qAKDbu1-207" target="CE5s2COzBPPs-qAKDbu1-232" edge="1">
          <mxGeometry relative="1" as="geometry">
            <mxPoint x="85" y="-101" as="sourcePoint" />
            <mxPoint x="-40" y="-133" as="targetPoint" />
          </mxGeometry>
        </mxCell>
        <mxCell id="CE5s2COzBPPs-qAKDbu1-245" value="h/a" style="edgeLabel;resizable=0;html=1;align=center;verticalAlign=middle;" parent="CE5s2COzBPPs-qAKDbu1-244" connectable="0" vertex="1">
          <mxGeometry relative="1" as="geometry">
            <mxPoint x="-2" as="offset" />
          </mxGeometry>
        </mxCell>
        <mxCell id="CE5s2COzBPPs-qAKDbu1-246" value="" style="endArrow=classic;html=1;rounded=0;exitX=0.5;exitY=0;exitDx=0;exitDy=0;" parent="1" source="CE5s2COzBPPs-qAKDbu1-207" target="CE5s2COzBPPs-qAKDbu1-233" edge="1">
          <mxGeometry relative="1" as="geometry">
            <mxPoint x="85" y="-101" as="sourcePoint" />
            <mxPoint x="-30" y="-140" as="targetPoint" />
          </mxGeometry>
        </mxCell>
        <mxCell id="CE5s2COzBPPs-qAKDbu1-247" value="h/a" style="edgeLabel;resizable=0;html=1;align=center;verticalAlign=middle;" parent="CE5s2COzBPPs-qAKDbu1-246" connectable="0" vertex="1">
          <mxGeometry relative="1" as="geometry">
            <mxPoint x="-2" as="offset" />
          </mxGeometry>
        </mxCell>
        <mxCell id="CE5s2COzBPPs-qAKDbu1-249" value="Substance" style="ellipse;whiteSpace=wrap;html=1;fillColor=#d5e8d4;strokeColor=#82b366;fontStyle=4" parent="1" vertex="1">
          <mxGeometry x="680" y="589.5" width="120" height="40" as="geometry" />
        </mxCell>
        <mxCell id="CE5s2COzBPPs-qAKDbu1-250" value="" style="endArrow=classic;html=1;rounded=0;entryX=0.822;entryY=0.829;entryDx=0;entryDy=0;entryPerimeter=0;exitX=0;exitY=0.5;exitDx=0;exitDy=0;" parent="1" source="5XHuWZA4LQ0ceYuqT-mD-1" target="CE5s2COzBPPs-qAKDbu1-249" edge="1">
          <mxGeometry relative="1" as="geometry">
            <mxPoint x="911" y="630" as="sourcePoint" />
            <mxPoint x="767" y="574" as="targetPoint" />
          </mxGeometry>
        </mxCell>
        <mxCell id="CE5s2COzBPPs-qAKDbu1-251" value="h/a" style="edgeLabel;resizable=0;html=1;align=center;verticalAlign=middle;" parent="CE5s2COzBPPs-qAKDbu1-250" connectable="0" vertex="1">
          <mxGeometry relative="1" as="geometry">
            <mxPoint x="-2" as="offset" />
          </mxGeometry>
        </mxCell>
        <mxCell id="CE5s2COzBPPs-qAKDbu1-252" value="Exposure duration" style="rounded=0;whiteSpace=wrap;html=1;fillColor=#d5e8d4;strokeColor=#82b366;" parent="1" vertex="1">
          <mxGeometry x="1260" y="720" width="110" height="50" as="geometry" />
        </mxCell>
        <mxCell id="CE5s2COzBPPs-qAKDbu1-253" value="" style="endArrow=classic;html=1;rounded=0;entryX=0.5;entryY=0;entryDx=0;entryDy=0;" parent="1" target="CE5s2COzBPPs-qAKDbu1-252" edge="1">
          <mxGeometry relative="1" as="geometry">
            <mxPoint x="1315" y="670" as="sourcePoint" />
            <mxPoint x="1135" y="731" as="targetPoint" />
          </mxGeometry>
        </mxCell>
        <mxCell id="CE5s2COzBPPs-qAKDbu1-254" value="h/a" style="edgeLabel;resizable=0;html=1;align=center;verticalAlign=middle;" parent="CE5s2COzBPPs-qAKDbu1-253" connectable="0" vertex="1">
          <mxGeometry relative="1" as="geometry">
            <mxPoint x="-2" as="offset" />
          </mxGeometry>
        </mxCell>
        <mxCell id="CE5s2COzBPPs-qAKDbu1-255" value="Exposure event" style="rounded=0;whiteSpace=wrap;html=1;fillColor=#d5e8d4;strokeColor=#82b366;" parent="1" vertex="1">
          <mxGeometry x="1260" y="825" width="110" height="50" as="geometry" />
        </mxCell>
        <mxCell id="CE5s2COzBPPs-qAKDbu1-256" value="" style="endArrow=classic;html=1;rounded=0;exitX=0.5;exitY=1;exitDx=0;exitDy=0;entryX=0.5;entryY=0;entryDx=0;entryDy=0;" parent="1" source="CE5s2COzBPPs-qAKDbu1-252" target="CE5s2COzBPPs-qAKDbu1-255" edge="1">
          <mxGeometry relative="1" as="geometry">
            <mxPoint x="1500" y="761" as="sourcePoint" />
            <mxPoint x="1180" y="761" as="targetPoint" />
          </mxGeometry>
        </mxCell>
        <mxCell id="CE5s2COzBPPs-qAKDbu1-257" value="has-one-or-more" style="edgeLabel;resizable=0;html=1;align=center;verticalAlign=middle;" parent="CE5s2COzBPPs-qAKDbu1-256" connectable="0" vertex="1">
          <mxGeometry relative="1" as="geometry">
            <mxPoint x="-2" as="offset" />
          </mxGeometry>
        </mxCell>
        <mxCell id="CE5s2COzBPPs-qAKDbu1-258" value="" style="endArrow=classic;html=1;rounded=0;exitX=1;exitY=0.5;exitDx=0;exitDy=0;entryX=-0.037;entryY=0.511;entryDx=0;entryDy=0;entryPerimeter=0;" parent="1" source="CE5s2COzBPPs-qAKDbu1-170" target="CE5s2COzBPPs-qAKDbu1-171" edge="1">
          <mxGeometry relative="1" as="geometry">
            <mxPoint x="712" y="778" as="sourcePoint" />
            <mxPoint x="555" y="835" as="targetPoint" />
          </mxGeometry>
        </mxCell>
        <mxCell id="CE5s2COzBPPs-qAKDbu1-259" value="contains" style="edgeLabel;resizable=0;html=1;align=center;verticalAlign=middle;" parent="CE5s2COzBPPs-qAKDbu1-258" connectable="0" vertex="1">
          <mxGeometry relative="1" as="geometry">
            <mxPoint x="-2" as="offset" />
          </mxGeometry>
        </mxCell>
        <mxCell id="CE5s2COzBPPs-qAKDbu1-260" value="Tissue" style="ellipse;whiteSpace=wrap;html=1;fillColor=#d5e8d4;strokeColor=#82b366;fontStyle=4" parent="1" vertex="1">
          <mxGeometry x="1926.5" y="971" width="70" height="40" as="geometry" />
        </mxCell>
        <mxCell id="CE5s2COzBPPs-qAKDbu1-261" value="" style="endArrow=classic;html=1;rounded=0;exitX=0.453;exitY=-0.014;exitDx=0;exitDy=0;entryX=0.563;entryY=1.042;entryDx=0;entryDy=0;exitPerimeter=0;entryPerimeter=0;" parent="1" source="CE5s2COzBPPs-qAKDbu1-110" target="CE5s2COzBPPs-qAKDbu1-260" edge="1">
          <mxGeometry relative="1" as="geometry">
            <mxPoint x="2139" y="1081" as="sourcePoint" />
            <mxPoint x="2044" y="1021" as="targetPoint" />
          </mxGeometry>
        </mxCell>
        <mxCell id="CE5s2COzBPPs-qAKDbu1-262" value="is-a" style="edgeLabel;resizable=0;html=1;align=center;verticalAlign=middle;" parent="CE5s2COzBPPs-qAKDbu1-261" connectable="0" vertex="1">
          <mxGeometry relative="1" as="geometry">
            <mxPoint x="-2" as="offset" />
          </mxGeometry>
        </mxCell>
        <mxCell id="CE5s2COzBPPs-qAKDbu1-263" value="" style="endArrow=classic;html=1;rounded=0;exitX=0.5;exitY=0;exitDx=0;exitDy=0;entryX=0.5;entryY=1;entryDx=0;entryDy=0;" parent="1" source="CE5s2COzBPPs-qAKDbu1-122" target="CE5s2COzBPPs-qAKDbu1-260" edge="1">
          <mxGeometry relative="1" as="geometry">
            <mxPoint x="1854" y="1080" as="sourcePoint" />
            <mxPoint x="1976" y="1023" as="targetPoint" />
          </mxGeometry>
        </mxCell>
        <mxCell id="CE5s2COzBPPs-qAKDbu1-264" value="is-a" style="edgeLabel;resizable=0;html=1;align=center;verticalAlign=middle;" parent="CE5s2COzBPPs-qAKDbu1-263" connectable="0" vertex="1">
          <mxGeometry relative="1" as="geometry">
            <mxPoint x="-2" as="offset" />
          </mxGeometry>
        </mxCell>
        <mxCell id="CE5s2COzBPPs-qAKDbu1-265" value="Target. [from (Heinemeyer et al. 2022), and (IPCS and IOMC 2004)]. &#xa;Any biological entity that receives an exposure or a dose (e.g., a human, a human population, or a human organ)." style="text;whiteSpace=wrap;html=1;" parent="1" vertex="1">
          <mxGeometry x="1030" y="1280" width="530" height="50" as="geometry" />
        </mxCell>
        <mxCell id="CE5s2COzBPPs-qAKDbu1-267" value="External exposure target" style="rounded=0;whiteSpace=wrap;html=1;fillColor=#d5e8d4;strokeColor=#82b366;" parent="1" vertex="1">
          <mxGeometry x="1145" y="1171" width="110" height="50" as="geometry" />
        </mxCell>
        <mxCell id="CE5s2COzBPPs-qAKDbu1-268" value="Exposure subject" style="rounded=0;whiteSpace=wrap;html=1;fillColor=#d5e8d4;strokeColor=#82b366;" parent="1" vertex="1">
          <mxGeometry x="1235" y="1081" width="110" height="50" as="geometry" />
        </mxCell>
        <mxCell id="CE5s2COzBPPs-qAKDbu1-270" value="" style="endArrow=classic;html=1;rounded=0;entryX=0.5;entryY=1;entryDx=0;entryDy=0;" parent="1" source="CE5s2COzBPPs-qAKDbu1-267" target="CE5s2COzBPPs-qAKDbu1-268" edge="1">
          <mxGeometry relative="1" as="geometry">
            <mxPoint x="1464" y="869" as="sourcePoint" />
            <mxPoint x="1515" y="922" as="targetPoint" />
          </mxGeometry>
        </mxCell>
        <mxCell id="CE5s2COzBPPs-qAKDbu1-271" value="is-a" style="edgeLabel;resizable=0;html=1;align=center;verticalAlign=middle;" parent="CE5s2COzBPPs-qAKDbu1-270" connectable="0" vertex="1">
          <mxGeometry relative="1" as="geometry">
            <mxPoint x="-2" as="offset" />
          </mxGeometry>
        </mxCell>
        <mxCell id="CE5s2COzBPPs-qAKDbu1-272" value="Internal exposure target" style="rounded=0;whiteSpace=wrap;html=1;fillColor=#d5e8d4;strokeColor=#82b366;" parent="1" vertex="1">
          <mxGeometry x="1320" y="1171" width="110" height="50" as="geometry" />
        </mxCell>
        <mxCell id="CE5s2COzBPPs-qAKDbu1-273" value="" style="endArrow=classic;html=1;rounded=0;entryX=0.5;entryY=1;entryDx=0;entryDy=0;exitX=0.5;exitY=0;exitDx=0;exitDy=0;" parent="1" source="CE5s2COzBPPs-qAKDbu1-272" target="CE5s2COzBPPs-qAKDbu1-268" edge="1">
          <mxGeometry relative="1" as="geometry">
            <mxPoint x="1239" y="1181" as="sourcePoint" />
            <mxPoint x="1285" y="1141" as="targetPoint" />
          </mxGeometry>
        </mxCell>
        <mxCell id="CE5s2COzBPPs-qAKDbu1-274" value="is-a" style="edgeLabel;resizable=0;html=1;align=center;verticalAlign=middle;" parent="CE5s2COzBPPs-qAKDbu1-273" connectable="0" vertex="1">
          <mxGeometry relative="1" as="geometry">
            <mxPoint x="-2" as="offset" />
          </mxGeometry>
        </mxCell>
        <mxCell id="E_MhMbmyatQcM8iBt9KD-1" value="Bias" style="ellipse;whiteSpace=wrap;html=1;fillColor=#d5e8d4;strokeColor=#82b366;fontStyle=0" parent="1" vertex="1">
          <mxGeometry x="1600" y="200" width="110" height="40" as="geometry" />
        </mxCell>
        <mxCell id="E_MhMbmyatQcM8iBt9KD-2" value="Attribute" style="text;whiteSpace=wrap;html=1;" parent="1" vertex="1">
          <mxGeometry x="1715" y="205" width="415" height="30" as="geometry" />
        </mxCell>
        <mxCell id="RjCvhxp_7pqwbNDnJ8aL-1" value="JK: This definition does not seem satisfactory for me. I would think that an external exposure may be composed of one or more exposure events that have a certain duration. In the present definition it is the other way around." style="whiteSpace=wrap;html=1;shape=mxgraph.basic.roundRectCallout;dx=30;dy=15;size=5;boundedLbl=1;" parent="1" vertex="1">
          <mxGeometry x="360" y="-340" width="310" height="110" as="geometry" />
        </mxCell>
        <mxCell id="RjCvhxp_7pqwbNDnJ8aL-2" value="Place discussion comments in a textbox." style="whiteSpace=wrap;html=1;shape=mxgraph.basic.roundRectCallout;dx=30;dy=15;size=5;boundedLbl=1;" parent="1" vertex="1">
          <mxGeometry x="1600" y="250" width="110" height="60" as="geometry" />
        </mxCell>
        <mxCell id="RjCvhxp_7pqwbNDnJ8aL-3" value="Discussion comments." style="text;whiteSpace=wrap;html=1;" parent="1" vertex="1">
          <mxGeometry x="1715" y="257" width="415" height="30" as="geometry" />
        </mxCell>
        <mxCell id="RjCvhxp_7pqwbNDnJ8aL-4" value="" style="endArrow=classic;html=1;rounded=0;" parent="1" edge="1">
          <mxGeometry relative="1" as="geometry">
            <mxPoint x="1601.5" y="330" as="sourcePoint" />
            <mxPoint x="1691.5" y="330" as="targetPoint" />
          </mxGeometry>
        </mxCell>
        <mxCell id="RjCvhxp_7pqwbNDnJ8aL-5" value="h/q" style="edgeLabel;resizable=0;html=1;align=center;verticalAlign=middle;" parent="RjCvhxp_7pqwbNDnJ8aL-4" connectable="0" vertex="1">
          <mxGeometry relative="1" as="geometry">
            <mxPoint x="-2" as="offset" />
          </mxGeometry>
        </mxCell>
        <mxCell id="RjCvhxp_7pqwbNDnJ8aL-6" value="Has quality relationship" style="text;whiteSpace=wrap;html=1;" parent="1" vertex="1">
          <mxGeometry x="1715" y="314" width="415" height="30" as="geometry" />
        </mxCell>
        <mxCell id="RjCvhxp_7pqwbNDnJ8aL-8" value="" style="endArrow=classic;html=1;rounded=0;" parent="1" edge="1">
          <mxGeometry relative="1" as="geometry">
            <mxPoint x="1606.5" y="358" as="sourcePoint" />
            <mxPoint x="1686.5" y="358" as="targetPoint" />
          </mxGeometry>
        </mxCell>
        <mxCell id="RjCvhxp_7pqwbNDnJ8aL-9" value="h/a" style="edgeLabel;resizable=0;html=1;align=center;verticalAlign=middle;" parent="RjCvhxp_7pqwbNDnJ8aL-8" connectable="0" vertex="1">
          <mxGeometry relative="1" as="geometry">
            <mxPoint x="-2" as="offset" />
          </mxGeometry>
        </mxCell>
        <mxCell id="RjCvhxp_7pqwbNDnJ8aL-10" value="Has attribute relationship" style="text;whiteSpace=wrap;html=1;" parent="1" vertex="1">
          <mxGeometry x="1715" y="340" width="415" height="30" as="geometry" />
        </mxCell>
      </root>
    </mxGraphModel>
  </diagram>
</mxfile>
